<?xml version="1.0" encoding="utf-8"?>
<!-- Generator: Adobe Illustrator 25.4.1, SVG Export Plug-In . SVG Version: 6.00 Build 0)  -->
<svg version="1.1" id="Layer_1" xmlns="http://www.w3.org/2000/svg" xmlns:xlink="http://www.w3.org/1999/xlink" x="0px" y="0px"
	 viewBox="0 0 366.4 122.8" style="enable-background:new 0 0 366.4 122.8;" xml:space="preserve">
<style type="text/css">
	.st0{fill:#102B66;}
	.st1{fill:#4A96D2;}
</style>
<g>
	<g>
		<path class="st0" d="M193.2,86.8l-0.5-3.7h-0.2c-2.1,2.5-5.7,4.3-10.1,4.3c-6.8,0-10.6-4.6-10.6-9.5c0-8.5,8.1-11,20.6-10.9v-0.5
			c0-2.1-0.7-6.6-7.5-6.5c-3.3,0-6.8,1.5-9.1,2.8l-1-5.7c2.5-1.4,6.2-3.4,11.5-3.5c11.9-0.3,13.9,7.2,13.9,14.1v11.5
			c0,2.9,0.1,5.7,0.5,7.6H193.2z M192.4,72.1c-6-0.1-12.1,0.3-12.1,5.1c0,3.1,2.1,4.6,4.8,4.6c3.4,0,6.2-2.1,6.9-4.4
			c0.2-0.6,0.3-1.2,0.3-1.8V72.1z"/>
		<path class="st0" d="M239.3,54c-0.1,2.2-0.3,4.9-0.3,9.4V82c0,6.9-1.5,11.8-5.1,14.9c-3.6,3-8.6,4-13.4,4c-4.4,0-8.5-1.6-11.5-3.3
			l1.1-6.2c2.2,1.2,6.1,3.1,10.3,3.1c5.7,0,10-2.8,10-9.9v-2.8h-0.1c-2,2.9-5.6,4.8-10.1,4.8c-8.6,0-14.7-6.7-14.7-16
			c0-10.8,7.3-17.3,15.7-17.3c5.3,0,7.8,2.4,9.5,5.1h0.1L231,54H239.3z M229.8,65.5c-0.7-2.4-3.3-5.5-7.1-5.5
			c-4.9,0-8.9,3.7-8.9,10.4c0,5.6,3.3,9.3,8.8,9c3.6-0.2,5.9-3,6.8-4.9C230.4,72.4,230.7,68.1,229.8,65.5z"/>
		<path class="st0" d="M254.9,44.9c0,2.5-1.8,4.4-4.6,4.4c-2.7,0-4.5-2-4.5-4.4c0-2.6,1.9-4.5,4.6-4.5
			C253.1,40.4,254.8,42.3,254.9,44.9z M246.2,86.8V54h8.2v32.8H246.2z"/>
		<path class="st0" d="M262.1,43.1c2.8,0,7.8-0.1,12.6-0.1c6.4,0,10.7,0,14.7,2.9c2.8,2,3.9,4.8,3.9,8.4c0,3.9-2,7.9-7.1,9.6V64
			c5,1.1,8.8,4.3,8.8,10.1c0,3.8-1.5,7.1-4.3,9.1c-3.4,2.6-9.3,3.1-18,3.1c-4.8,0-8.3-0.1-10.7-0.1V43.1z M270.5,61.3h4.7
			c8.5,0,9.8-3,9.8-6.1c0-5.2-5.5-5-9.3-5c-2.5,0-4.2,0-5.2,0V61.3z M270.5,79.5c1.1,0,2.8,0,4.8,0c6,0,11-0.5,11-5.7
			c0-4.9-2.6-6.7-11.3-6.7h-4.5V79.5z"/>
		<path class="st0" d="M310,42.9v43.9h-8.1V42.9H310z"/>
		<path class="st0" d="M165.7,42.9h-9.8c0,0-9.9,20.6-12.2,25.5h-0.5c-2.3-4.9-12.2-25.5-12.2-25.5h-9.8l-0.9,43.9h7.8
			c0,0,0.4-24.3,0.6-30.2l0.8,0c2.6,6,11.1,23.1,11.1,23.1h5.6c0,0,8.5-17,11.1-23.1l0.8,0c0.2,5.9,0.6,30.2,0.6,30.2h7.8
			L165.7,42.9z"/>
		<path class="st0" d="M363,42.9h-9.8c0,0-9.9,20.6-12.2,25.5h-0.5c-2.3-4.9-12.2-25.5-12.2-25.5h-9.8l-0.9,43.9h7.8
			c0,0,0.4-24.3,0.6-30.2l0.8,0c2.6,6,11.1,23.1,11.1,23.1h5.6c0,0,8.5-17,11.1-23.1l0.8,0c0.2,5.9,0.6,30.2,0.6,30.2h7.8L363,42.9z
			"/>
	</g>
	<path class="st1" d="M94.7,4c-1.7-0.6-3.3,0.8-3.3,0.8L52.8,35.6c-0.3,0.3-0.4,0.8,0,1.1l21.9,18.9c0.2,0.1,0.2,0.3,0.2,0.5v49.3
		c0,0,0,0,0,0l20.8,5.3c0.2,0.1,0.4,0.2,0.5,0.4c0-0.1,0-0.1,0-0.2V6.2C96.2,6.2,96.3,4.5,94.7,4z"/>
	<path class="st0" d="M6.9,4.6l64.1,51.8c0.2,0.1,0.3,0.3,0.3,0.5v47c0,0.3,0.2,0.6,0.5,0.7l23.8,6.1c0.3,0.1,0.5,0.4,0.5,0.7v4.8
		c0,0.5-0.5,0.8-0.9,0.7l-40.2-11.8c-0.3-0.1-0.5-0.4-0.5-0.7V68.4c0-0.3-0.2-0.5-0.4-0.7l-25-10.1c-0.5-0.2-1,0.2-1,0.7v51.8
		c0,0.3-0.2,0.5-0.4,0.7l-22.5,9.2c0,0-0.6,0.3-1.3,0c-0.8-0.3-0.7-1.3-0.7-1.3V5c0,0,0-0.9,1.1-1.3C5,3.5,5.7,3.7,6.1,4
		C6.5,4.3,6.9,4.6,6.9,4.6z"/>
</g>
</svg>
