<?xml version="1.0" encoding="utf-8"?>
<!-- Generator: Adobe Illustrator 25.4.1, SVG Export Plug-In . SVG Version: 6.00 Build 0)  -->
<svg version="1.1" id="Layer_1" xmlns="http://www.w3.org/2000/svg" xmlns:xlink="http://www.w3.org/1999/xlink" x="0px" y="0px"
	 viewBox="0 0 75 75" style="enable-background:new 0 0 75 75;" xml:space="preserve">
<g>
	
		<g id="_x32_45_x2C__Architect_x2C__Design_x2C__Education_x2C__Ruler_x2C__Tools_00000123401092554859774100000009182375853797900976_">
		<g>
			<path d="M66.9,22.4c0-0.7-0.6-1.3-1.3-1.3H51.9v-7.5c0-0.7-0.6-1.3-1.3-1.3H43c-0.7,0-1.3,0.6-1.3,1.3v7.5h-3.8v-1.3
				c0-0.2,0-0.3-0.1-0.5L35.3,13c0-0.3-0.5-0.6-1-0.6c-0.5,0-1,0.3-1.2,0.8l-2.5,6.2c-0.1,0.1-0.1,0.3-0.1,0.5v1.3H18v-2.4
				c0-2.9-2.2-5.1-5-5.1c-2.8,0-5,2.3-5,5.2c0,31.2,0,38.4,0,38.5c0.1,4.3,3.3,7.6,7.5,7.6h50.2c0.7,0,1.3-0.6,1.3-1.3
				C66.9,60.2,66.9,24,66.9,22.4z M49.3,14.9v36.4h-5v-2.5h1.3c0.7,0,1.3-0.6,1.3-1.3c0-0.7-0.6-1.3-1.3-1.3h-1.3v-1.3h2.5
				c0.7,0,1.3-0.6,1.3-1.3c0-0.7-0.6-1.1-1.3-1.1h-2.5v-1.3h1.3c0.7,0,1.3-0.6,1.3-1.3c0-0.7-0.6-1.3-1.3-1.3h-1.3v-1.1h2.5
				c0.7,0,1.3-0.6,1.3-1.3c0-0.7-0.6-1.3-1.3-1.3h-2.5v-1.3h1.3c0.7,0,1.3-0.6,1.3-1.3c0-0.7-0.6-1.3-1.3-1.3h-1.3v-1.3h2.5
				c0.7,0,1.3-0.6,1.3-1.3c0-0.7-0.6-1.3-1.3-1.3h-2.5v-1.3h1.3c0.7,0,1.3-0.6,1.3-1.3c0-0.7-0.6-1.3-1.3-1.3h-1.3v-0.7h2.5
				c0.7,0,1.3-0.6,1.3-1.3c0-0.7-0.6-1.3-1.3-1.3h-2.5v-1.3h1.3c0.7,0,1.3-0.6,1.3-1.3c0-0.7-0.6-1.3-1.3-1.3h-1.3v-1.3h5V14.9z
				 M35.6,46.3h-2.5V45h2.5V46.3z M33.1,48.8h2.5v1.3c0,0.7-0.6,1.3-1.3,1.3c-0.7,0-1.3-0.6-1.3-1.3v-1.3H33.1z M33.1,20.1l1.3-3.1
				l1.3,3.1v22.4h-2.5V20.1H33.1z M13,16.2c1.4,0,2.5,1.1,2.5,2.6c0,6.3,0,33.7,0,34.3c-1.6-1-3.5-1-5,0V18.9
				C10.5,17.4,11.6,16.2,13,16.2z M15.5,62.6c-2.8,0-4.9-2.2-5-5.2c0.1-1.4,1.2-2.5,2.5-2.5c1.3,0,2.4,1.3,2.5,2.7
				c0,0.7,0.6,1.2,1.3,1.2c0.7,0,1.2-0.6,1.2-1.2V23.7h2.5v27.6c0,0.7,0.6,1.3,1.3,1.3c0.7,0,1.3-0.6,1.3-1.3V23.7h7.5v26.4
				c0,2.1,1.7,3.8,3.8,3.8c2.1,0,3.8-1.7,3.8-3.8V23.7h3.5v28.8c0,0.7,0.6,1.3,1.3,1.3h7.5c0.7,0,1.3-0.6,1.3-1.3V23.7h12.5v33.9
				H29.4c-0.7,0-1.3,0.6-1.3,1.3c0,0.7,0.6,1.3,1.3,1.3h35.1v2.3H15.5z"/>
			<path d="M54.4,50h7.5c0.7,0,1.3-0.6,1.3-1.3c0-0.7-0.6-1.2-1.3-1.2h-7.5c-0.7,0-1.3,0.6-1.3,1.3C53.1,49.5,53.7,50,54.4,50z"/>
			<path d="M54.4,46.3h5c0.7,0,1.3-0.6,1.3-1.3c0-0.7-0.6-1.3-1.3-1.3h-5c-0.7,0-1.3,0.6-1.3,1.3C53.1,45.7,53.7,46.3,54.4,46.3z"/>
			<path d="M54.4,42.5h7.5c0.7,0,1.3-0.6,1.3-1.3c0-0.7-0.6-1.3-1.3-1.3h-7.5c-0.7,0-1.3,0.6-1.3,1.3C53.2,41.9,53.7,42.5,54.4,42.5
				z"/>
			<path d="M54.4,38.8h7.5c0.7,0,1.3-0.6,1.3-1.3c0-0.7-0.6-1.3-1.3-1.3h-7.5c-0.7,0-1.3,0.6-1.3,1.3C53.2,38.2,53.7,38.8,54.4,38.8
				z"/>
			<path d="M54.4,35h5c0.7,0,1.3-0.6,1.3-1.3c0-0.7-0.6-1.3-1.3-1.3h-5c-0.7,0-1.3,0.6-1.3,1.3C53.2,34.4,53.7,35,54.4,35z"/>
			<path d="M54.4,31.2h7.5c0.7,0,1.3-0.6,1.3-1.3c0-0.7-0.6-1.3-1.3-1.3h-7.5c-0.7,0-1.3,0.6-1.3,1.3C53.2,30.6,53.7,31.2,54.4,31.2
				z"/>
		</g>
	</g>
	<g id="Layer_1_00000137092748366248758170000003815787297700998805_">
	</g>
</g>
</svg>
