<?xml version="1.0" encoding="utf-8"?>
<!-- Generator: Adobe Illustrator 25.4.1, SVG Export Plug-In . SVG Version: 6.00 Build 0)  -->
<svg version="1.1" id="Layer_1" xmlns="http://www.w3.org/2000/svg" xmlns:xlink="http://www.w3.org/1999/xlink" x="0px" y="0px"
	 viewBox="0 0 75 75" style="enable-background:new 0 0 75 75;" xml:space="preserve">
<g>
	<g id="_x32_34_x2C__Plan_x2C__Blue_x2C__Design_x2C__Planning_x2C__Print_00000117640238568733767900000007573465340002022534_">
		<g>
			<path d="M66.2,40.1c-0.4-0.2-1-0.1-1.3,0.2l-1.7,1.4V18.2c0-0.7-0.6-1.3-1.3-1.3H18.3v-2.5c0-3-2.3-5.2-5.1-5.2
				c-2.9,0-5.1,2.4-5.1,5.3c0,31.9,0,39.2,0,39.3c0.1,4.4,3.4,7.8,7.7,7.8h24.6l-2.2,1.8c-0.4,0.3-0.5,0.9-0.3,1.4
				c0.2,0.5,0.6,0.8,1.2,0.8h26.6c0.7,0,1.3-0.6,1.3-1.3V41.2C67,40.7,66.7,40.3,66.2,40.1z M13.2,11.8c1.4,0,2.6,1.1,2.6,2.7
				c0,6.5,0,34.4,0,35c-1.6-1-3.6-1-5.1,0V14.6C10.7,13.1,11.8,11.8,13.2,11.8z M15.8,59.1c-2.9,0-5-2.3-5.1-5.3
				c0.1-1.4,1.2-2.6,2.6-2.6c1.3,0,2.5,1.3,2.6,2.8c0,0.7,0.6,1.2,1.3,1.2c0.7,0,1.2-0.6,1.2-1.2V19.5h2.6v34.3
				c0,0.7,0.6,1.3,1.3,1.3c0.7,0,1.3-0.6,1.3-1.3V19.5h37.2v24.6L43.2,59.1H15.8z M64.4,63.2h-22L64.3,44v19.3H64.4z"/>
			<path d="M21.5,63"/>
			<path d="M49.8,60.3c0.2,0.5,0.6,0.8,1.2,0.8h10.2c0.7,0,1.3-0.6,1.3-1.3v-9c0-0.5-0.3-0.9-0.7-1.1c-0.4-0.2-1-0.1-1.3,0.2
				l-10.2,9C49.7,59.1,49.6,59.8,49.8,60.3z M59.9,53.6v4.8h-5.5L59.9,53.6z"/>
			<path d="M53.4,34.7L41,26.1c-0.4-0.3-1-0.3-1.4,0l-12.4,8.6c-0.6,0.4-0.7,1.2-0.3,1.7c0.4,0.6,1.2,0.7,1.7,0.3l1.3-0.9v10.4
				c0,0.7,0.6,1.3,1.3,1.3h17.8c0.7,0,1.3-0.6,1.3-1.3V35.6l1.7,1.2c0.6,0.4,1.3,0.3,1.7-0.3C54.1,35.9,54,35.1,53.4,34.7z
				 M47.6,45.1H32.4v-11l7.9-5.4l7.4,5.1V45.1z"/>
			<path d="M44,42.6c0.7,0,1.3-0.6,1.3-1.3v-6.5c0-0.7-0.6-1.3-1.3-1.3c-0.7,0-1.4,0.7-1.4,1.4V40h-5.1c-0.7,0-1.2,0.5-1.2,1.2
				c0,0.7,0.6,1.3,1.3,1.3"/>
		</g>
	</g>
	<g id="Layer_1_00000027577739325016765310000014734870540075295413_">
	</g>
</g>
</svg>
