<?xml version="1.0" encoding="utf-8"?>
<!-- Generator: Adobe Illustrator 25.4.1, SVG Export Plug-In . SVG Version: 6.00 Build 0)  -->
<svg version="1.1" id="Layer_1" xmlns="http://www.w3.org/2000/svg" xmlns:xlink="http://www.w3.org/1999/xlink" x="0px" y="0px"
	 viewBox="0 0 75 75" style="enable-background:new 0 0 75 75;" xml:space="preserve">
<style type="text/css">
	.st0{fill:#1E81CE;}
</style>
<path class="st0" d="M65.3,39.2l-9.2-13.4l9.2-12.9c0.1-0.1,0.1-0.4,0-0.6c-0.2-0.2-0.4-0.3-0.6-0.3H26.9v-0.6
	c0-1.7-1.4-3.1-3.1-3.1c-1.7,0-3.1,1.4-3.1,3.1v45.8h-1.8c-0.7,0-1.2,0.2-1.7,0.7c-0.4,0.5-0.7,1-0.7,1.7c0,0.4,0.1,0.9,0.3,1.2
	h-1.7c-1.8,0-3.3,1.5-3.3,3.3v1.7h-1.6c-0.3,0-0.6,0.3-0.6,0.6c0,0.3,0.3,0.6,0.6,0.6h46.6c0.4,0,0.6-0.3,0.7-0.6
	c0-0.3-0.3-0.6-0.6-0.6H36.2v-1.7c0-1.8-1.5-3.3-3.3-3.3h-1.7c0.2-0.4,0.3-0.8,0.3-1.2c0-1.3-1-2.3-2.3-2.3h-2.4V40.3h37.9
	c0.4,0,0.7-0.3,0.7-0.7C65.4,39.4,65.4,39.3,65.3,39.2z M21.8,11.3c0-1.1,0.8-1.9,1.9-1.9c1.1,0,1.9,0.9,1.9,1.9v45.8h-3.8V11.3z
	 M33,61.8c1.2,0,2.1,0.9,2.1,2.1v1.7H13v-1.7c0-1.2,0.9-2.1,2.1-2.1H33z M29.2,58.2c0.7,0,1.2,0.6,1.2,1.2c0,0.4-0.2,0.7-0.4,0.8
	c-0.3,0.3-0.6,0.4-0.8,0.4H18.8c-0.7,0-1.2-0.6-1.2-1.2c0-0.4,0.2-0.7,0.4-0.8c0.3-0.3,0.6-0.4,0.8-0.4H29.2z M26.9,39.1V13.2h36.6
	l-8.8,12.2c-0.1,0.2-0.1,0.5,0,0.7l8.8,12.9H26.9z M40.9,16c-0.3,0-0.6,0.3-0.6,0.6s0.3,0.6,0.6,0.6h0c0.3,0,0.6-0.3,0.6-0.6
	S41.2,16,40.9,16z M29,16c-0.1-0.1-0.3-0.1-0.5,0c-0.1,0-0.1,0.1-0.2,0.1c-0.1,0.1-0.2,0.3-0.2,0.4c0,0.1,0,0.2,0,0.2
	c0,0.1,0.1,0.1,0.1,0.2c0.1,0.1,0.3,0.2,0.4,0.2c0.2,0,0.3-0.1,0.4-0.2c0.1,0,0.1-0.1,0.1-0.2c0-0.1,0-0.2,0-0.2
	c0-0.2-0.1-0.3-0.2-0.4C29.1,16.1,29.1,16.1,29,16z M51,16c-0.3,0-0.6,0.3-0.6,0.6s0.3,0.6,0.6,0.6h0c0.3,0,0.6-0.3,0.6-0.6
	S51.3,16,51,16z M42.9,16c-0.3,0-0.6,0.3-0.6,0.6s0.3,0.6,0.6,0.6h0c0.3,0,0.6-0.3,0.6-0.6S43.2,16,42.9,16z M36.8,16
	c-0.3,0-0.6,0.3-0.6,0.6s0.3,0.6,0.6,0.6h0c0.3,0,0.6-0.3,0.6-0.6S37.2,16,36.8,16z M30.8,16c-0.3,0-0.6,0.3-0.6,0.6
	s0.3,0.6,0.6,0.6h0c0.3,0,0.6-0.3,0.6-0.6S31.1,16,30.8,16z M38.9,16c-0.3,0-0.6,0.3-0.6,0.6s0.3,0.6,0.6,0.6h0
	c0.3,0,0.6-0.3,0.6-0.6S39.2,16,38.9,16z M34.8,16c-0.3,0-0.6,0.3-0.6,0.6s0.3,0.6,0.6,0.6h0c0.3,0,0.6-0.3,0.6-0.6S35.2,16,34.8,16
	z M49,16c-0.3,0-0.6,0.3-0.6,0.6s0.3,0.6,0.6,0.6h0c0.3,0,0.6-0.3,0.6-0.6S49.3,16,49,16z M47,16c-0.3,0-0.6,0.3-0.6,0.6
	s0.3,0.6,0.6,0.6h0c0.3,0,0.6-0.3,0.6-0.6S47.3,16,47,16z M32.8,16c-0.3,0-0.6,0.3-0.6,0.6s0.3,0.6,0.6,0.6h0c0.3,0,0.6-0.3,0.6-0.6
	S33.1,16,32.8,16z M53.3,16c-0.2-0.1-0.5,0-0.7,0.1c-0.1,0-0.1,0.1-0.1,0.2c0,0.1,0,0.1,0,0.2s0,0.2,0,0.2c0,0.1,0.1,0.1,0.1,0.2
	c0.1,0.1,0.3,0.2,0.4,0.2c0.2,0,0.3-0.1,0.4-0.2c0.1,0,0.1-0.1,0.1-0.2c0-0.1,0-0.2,0-0.2c0-0.2-0.1-0.3-0.2-0.4
	C53.4,16.1,53.3,16.1,53.3,16z M44.9,16c-0.3,0-0.6,0.3-0.6,0.6s0.3,0.6,0.6,0.6h0c0.3,0,0.6-0.3,0.6-0.6S45.3,16,44.9,16z
	 M32.8,34.9c-0.3,0-0.6,0.3-0.6,0.6s0.3,0.6,0.6,0.6h0c0.3,0,0.6-0.3,0.6-0.6S33.1,34.9,32.8,34.9z M28.5,34.9
	c-0.1,0-0.1,0.1-0.2,0.1c-0.1,0.1-0.2,0.3-0.2,0.4c0,0.1,0.1,0.3,0.2,0.4c0,0.1,0.1,0.1,0.2,0.1c0.1,0,0.1,0,0.2,0
	c0.2,0,0.3-0.1,0.4-0.2c0.1-0.1,0.2-0.3,0.2-0.4c0-0.2-0.1-0.3-0.2-0.4C29,34.9,28.7,34.8,28.5,34.9z M30.8,34.9
	c-0.3,0-0.6,0.3-0.6,0.6s0.3,0.6,0.6,0.6h0c0.3,0,0.6-0.3,0.6-0.6S31.1,34.9,30.8,34.9z M52.8,34.9c-0.1,0-0.1,0.1-0.2,0.1
	c-0.1,0.1-0.2,0.3-0.2,0.4c0,0.1,0,0.1,0,0.2c0,0.1,0.1,0.1,0.1,0.2c0.1,0.1,0.3,0.2,0.4,0.2c0.2,0,0.3-0.1,0.4-0.2
	c0.1-0.1,0.1-0.1,0.1-0.2c0-0.1,0-0.1,0-0.2c0-0.2-0.1-0.3-0.2-0.4C53.3,34.9,53,34.8,52.8,34.9z M47,34.9c-0.3,0-0.6,0.3-0.6,0.6
	s0.3,0.6,0.6,0.6h0c0.3,0,0.6-0.3,0.6-0.6S47.3,34.9,47,34.9z M34.8,34.9c-0.3,0-0.6,0.3-0.6,0.6s0.3,0.6,0.6,0.6h0
	c0.3,0,0.6-0.3,0.6-0.6S35.2,34.9,34.8,34.9z M51,34.9c-0.3,0-0.6,0.3-0.6,0.6s0.3,0.6,0.6,0.6h0c0.3,0,0.6-0.3,0.6-0.6
	S51.3,34.9,51,34.9z M44.9,34.9c-0.3,0-0.6,0.3-0.6,0.6s0.3,0.6,0.6,0.6h0c0.3,0,0.6-0.3,0.6-0.6S45.3,34.9,44.9,34.9z M49,34.9
	c-0.3,0-0.6,0.3-0.6,0.6s0.3,0.6,0.6,0.6h0c0.3,0,0.6-0.3,0.6-0.6S49.3,34.9,49,34.9z M42.9,34.9c-0.3,0-0.6,0.3-0.6,0.6
	s0.3,0.6,0.6,0.6h0c0.3,0,0.6-0.3,0.6-0.6S43.2,34.9,42.9,34.9z M36.8,34.9c-0.3,0-0.6,0.3-0.6,0.6s0.3,0.6,0.6,0.6h0
	c0.3,0,0.6-0.3,0.6-0.6S37.2,34.9,36.8,34.9z M38.9,34.9c-0.3,0-0.6,0.3-0.6,0.6s0.3,0.6,0.6,0.6h0c0.3,0,0.6-0.3,0.6-0.6
	S39.2,34.9,38.9,34.9z M40.9,34.9c-0.3,0-0.6,0.3-0.6,0.6s0.3,0.6,0.6,0.6h0c0.3,0,0.6-0.3,0.6-0.6S41.2,34.9,40.9,34.9z"/>
</svg>
