<?xml version="1.0" encoding="utf-8"?>
<!-- Generator: Adobe Illustrator 25.4.1, SVG Export Plug-In . SVG Version: 6.00 Build 0)  -->
<svg version="1.1" id="Layer_1" xmlns="http://www.w3.org/2000/svg" xmlns:xlink="http://www.w3.org/1999/xlink" x="0px" y="0px"
	 viewBox="0 0 75 75" style="enable-background:new 0 0 75 75;" xml:space="preserve">
<style type="text/css">
	.st0{fill:#1E81CE;}
</style>
<path class="st0" d="M27.8,30.1h9.5c0.3,0,0.6-0.3,0.6-0.6c0-0.3-0.3-0.6-0.6-0.6h-9.5c-0.3,0-0.6,0.3-0.6,0.6
	C27.2,29.8,27.5,30.1,27.8,30.1z M65.1,17.5H17.7v-3c0-1.2-0.5-2.4-1.3-3.2c-0.8-0.8-1.9-1.3-3.1-1.3c-2.4,0-4.4,2.1-4.4,4.6v38.6
	c0,0,0,0.1,0,0.1c0,1.8,0.7,3.6,1.9,4.9c1.2,1.4,3,2.1,4.9,2.1h12.1v0.1c0,0.1,0,0.4,0.2,0.7l2.4,3.8h-3c-0.3,0-0.6,0.3-0.6,0.6
	s0.3,0.6,0.6,0.6h19.4c0.3,0,0.6-0.3,0.6-0.6s-0.3-0.6-0.6-0.6h-14l2.3-3.7c0.2-0.3,0.2-0.5,0.2-0.7v-0.1h29.7
	c0.3,0,0.6-0.3,0.6-0.7V18.1C65.7,17.8,65.4,17.5,65.1,17.5z M10.3,14.5c0-1.9,1.4-3.4,3.1-3.4c0.8,0,1.6,0.3,2.2,0.9
	c0.6,0.6,0.9,1.4,0.9,2.3V18c0,0,0,0,0,0v32.2c-0.8-0.9-1.9-1.5-3.1-1.5c-1.2,0-2.3,0.5-3.1,1.3V14.5z M34.2,60.4l-2.5,4
	c0,0,0,0-0.1,0l0,0l-2.5-4.1v-2.5h5.1L34.2,60.4z M34.2,56.6h-5.1V42.8h5.1L34.2,56.6z M34.2,41.6h-5.1v-0.5c0-0.7,0.3-1.3,0.7-1.8
	c0.5-0.5,1.1-0.7,1.8-0.7c1.4,0,2.5,1.1,2.5,2.5V41.6z M64.5,59.2H35.4V41.1c0-2.1-1.7-3.7-3.7-3.7c-1,0-1.9,0.4-2.6,1.1
	c-0.7,0.7-1.1,1.6-1.1,2.6v18h-12c-3.2,0-5.6-2.4-5.7-5.9c0.1-1.8,1.5-3.1,3.1-3.1c1.6,0,3,1.5,3.1,3.3c0,0.3,0.3,0.6,0.6,0.6
	c0.3,0,0.6-0.3,0.6-0.6V18.9h46.7V59.2z M27.8,25h9.5c0.3,0,0.6-0.3,0.6-0.6c0-0.3-0.3-0.6-0.6-0.6h-9.5c-0.3,0-0.6,0.3-0.6,0.6
	C27.2,24.7,27.5,25,27.8,25z M27.8,27.6h9.5c0.3,0,0.6-0.3,0.6-0.6c0-0.3-0.3-0.6-0.6-0.6h-9.5c-0.3,0-0.6,0.3-0.6,0.6
	C27.2,27.3,27.5,27.6,27.8,27.6z M21.9,25.3c0.3,0,0.6-0.3,0.6-0.6v0c0-0.3-0.3-0.6-0.6-0.6s-0.6,0.3-0.6,0.6S21.5,25.3,21.9,25.3z
	 M21.9,23.3c0.3,0,0.6-0.3,0.6-0.6v0c0-0.3-0.3-0.6-0.6-0.6s-0.6,0.3-0.6,0.6S21.5,23.3,21.9,23.3z M21.9,21.2
	c0.3,0,0.6-0.3,0.6-0.6v0c0-0.3-0.3-0.6-0.6-0.6s-0.6,0.3-0.6,0.6S21.5,21.2,21.9,21.2z M21.9,27.3c0.3,0,0.6-0.3,0.6-0.6v0
	c0-0.3-0.3-0.6-0.6-0.6s-0.6,0.3-0.6,0.6S21.5,27.3,21.9,27.3z M21.9,49.3c0.3,0,0.6-0.3,0.6-0.6v0c0-0.3-0.3-0.6-0.6-0.6
	s-0.6,0.3-0.6,0.6S21.5,49.3,21.9,49.3z M21.9,47.3c0.3,0,0.6-0.3,0.6-0.6v0c0-0.3-0.3-0.6-0.6-0.6s-0.6,0.3-0.6,0.6
	S21.5,47.3,21.9,47.3z M21.9,45.3c0.3,0,0.6-0.3,0.6-0.6v0c0-0.3-0.3-0.6-0.6-0.6s-0.6,0.3-0.6,0.6S21.5,45.3,21.9,45.3z M21.9,43.3
	c0.3,0,0.6-0.3,0.6-0.6v0c0-0.3-0.3-0.6-0.6-0.6s-0.6,0.3-0.6,0.6S21.5,43.3,21.9,43.3z M21.9,41.3c0.3,0,0.6-0.3,0.6-0.6v0
	c0-0.3-0.3-0.6-0.6-0.6s-0.6,0.3-0.6,0.6S21.5,41.3,21.9,41.3z M21.9,29.3c0.3,0,0.6-0.3,0.6-0.6v0c0-0.3-0.3-0.6-0.6-0.6
	s-0.6,0.3-0.6,0.6S21.5,29.3,21.9,29.3z M21.9,51.3c0.2,0,0.3-0.1,0.4-0.2c0.1-0.1,0.2-0.3,0.2-0.4c0-0.1,0-0.2,0-0.2
	c0-0.1-0.1-0.1-0.1-0.2c-0.2-0.2-0.6-0.2-0.9,0c-0.1,0-0.1,0.1-0.1,0.2c0,0.1-0.1,0.2-0.1,0.2c0,0.2,0.1,0.3,0.2,0.4
	C21.5,51.3,21.7,51.3,21.9,51.3z M21.9,37.3c0.3,0,0.6-0.3,0.6-0.6v0c0-0.3-0.3-0.6-0.6-0.6s-0.6,0.3-0.6,0.6S21.5,37.3,21.9,37.3z
	 M21.9,39.3c0.3,0,0.6-0.3,0.6-0.6v0c0-0.3-0.3-0.6-0.6-0.6s-0.6,0.3-0.6,0.6S21.5,39.3,21.9,39.3z M21.9,35.3
	c0.3,0,0.6-0.3,0.6-0.6v0c0-0.3-0.3-0.6-0.6-0.6s-0.6,0.3-0.6,0.6S21.5,35.3,21.9,35.3z M21.9,31.3c0.3,0,0.6-0.3,0.6-0.6v0
	c0-0.3-0.3-0.6-0.6-0.6s-0.6,0.3-0.6,0.6S21.5,31.3,21.9,31.3z M21.9,33.3c0.3,0,0.6-0.3,0.6-0.6v0c0-0.3-0.3-0.6-0.6-0.6
	s-0.6,0.3-0.6,0.6S21.5,33.3,21.9,33.3z M63.8,31.7c-0.3-0.2-0.7-0.1-0.8,0.1c-0.2,0.3-0.1,0.6,0.1,0.8c0.1,0.1,0.2,0.1,0.4,0.1
	c0.2,0,0.3-0.1,0.5-0.3C64.1,32.3,64.1,31.9,63.8,31.7L63.8,31.7z M61.5,48.2c0.1,0,0.1,0,0.2,0l0,0c0.3-0.1,0.5-0.5,0.3-0.8
	c-0.1-0.3-0.5-0.5-0.8-0.3c-0.3,0.1-0.5,0.5-0.3,0.8C61,48.1,61.3,48.2,61.5,48.2z M63.3,47.3c0.1,0,0.2,0,0.3-0.1
	c0.3-0.2,0.3-0.6,0.2-0.8c-0.2-0.3-0.6-0.3-0.8-0.2c-0.3,0.2-0.3,0.6-0.2,0.8C62.9,47.2,63.1,47.3,63.3,47.3z M62,30.6
	c-0.3-0.1-0.7,0-0.8,0.3c-0.1,0.3,0,0.7,0.3,0.8c0.1,0,0.2,0.1,0.3,0.1c0.2,0,0.4-0.1,0.5-0.4C62.4,31.1,62.3,30.8,62,30.6z
	 M55.6,30.4c-0.3,0.1-0.5,0.4-0.4,0.8c0.1,0.3,0.3,0.4,0.6,0.4c0.1,0,0.1,0,0.2,0c0.3-0.1,0.5-0.4,0.4-0.7
	C56.3,30.4,55.9,30.2,55.6,30.4z M57.5,48.8C57.5,48.8,57.6,48.8,57.5,48.8c0.4,0,0.6-0.2,0.7-0.5c0-0.3-0.2-0.6-0.5-0.7
	c-0.3,0-0.6,0.2-0.7,0.5C56.9,48.4,57.2,48.7,57.5,48.8z M57.8,31.1C57.8,31.1,57.8,31.1,57.8,31.1C57.8,31.1,57.8,31.1,57.8,31.1
	C57.9,31.1,57.9,31.1,57.8,31.1c0.4,0,0.7-0.3,0.6-0.7c0-0.3-0.3-0.6-0.7-0.5c0,0,0,0,0,0l0,0c-0.3,0-0.6,0.3-0.6,0.6
	C57.2,30.9,57.5,31.2,57.8,31.1z M59.7,31.2c0,0,0.1,0,0.1,0c0.3,0,0.5-0.2,0.6-0.5c0.1-0.3-0.2-0.6-0.5-0.7
	c-0.3-0.1-0.6,0.2-0.7,0.5C59.2,30.9,59.4,31.2,59.7,31.2z M55.8,47.2c-0.3-0.1-0.6,0.1-0.8,0.4c-0.1,0.3,0.1,0.7,0.4,0.8
	c0.1,0,0.1,0,0.2,0c0.2,0,0.5-0.2,0.5-0.4C56.3,47.6,56.1,47.3,55.8,47.2z M49.9,40.9c0.3,0,0.6-0.3,0.5-0.7c0-0.3-0.3-0.6-0.7-0.5
	c-0.3,0-0.6,0.3-0.5,0.7C49.2,40.6,49.5,40.9,49.9,40.9C49.8,40.9,49.8,40.9,49.9,40.9z M49.7,42.4c0.1,0.3,0.3,0.4,0.6,0.4
	c0.1,0,0.1,0,0.2,0c0.3-0.1,0.5-0.4,0.4-0.8c0,0,0,0,0,0c-0.1-0.3-0.4-0.5-0.8-0.4C49.7,41.7,49.6,42.1,49.7,42.4L49.7,42.4z
	 M49.7,38.9C49.8,38.9,49.8,38.9,49.7,38.9c0.4,0,0.6-0.2,0.7-0.5c0-0.3-0.2-0.6-0.5-0.7c-0.3,0-0.6,0.2-0.7,0.5l0,0
	C49.2,38.5,49.4,38.8,49.7,38.9z M54.3,47.2c0.2-0.3,0.1-0.7-0.2-0.8c-0.3-0.2-0.7-0.1-0.8,0.2c-0.2,0.3-0.1,0.7,0.2,0.8
	c0.1,0.1,0.2,0.1,0.3,0.1C54,47.5,54.2,47.4,54.3,47.2z M52.3,46.2c0.1,0,0.3-0.1,0.4-0.2c0.2-0.2,0.2-0.6,0-0.9
	c-0.2-0.2-0.6-0.2-0.9,0c-0.2,0.2-0.2,0.6,0,0.9C52,46.1,52.1,46.2,52.3,46.2z M50.7,43.5c-0.3,0.2-0.4,0.5-0.2,0.8
	c0.1,0.2,0.3,0.3,0.5,0.3c0.1,0,0.2,0,0.3-0.1c0.3-0.2,0.4-0.5,0.2-0.8C51.4,43.4,51,43.3,50.7,43.5z M59.6,48.7
	C59.6,48.7,59.6,48.7,59.6,48.7c0.4-0.1,0.6-0.4,0.6-0.7c0-0.3-0.3-0.6-0.7-0.5c-0.3,0-0.6,0.3-0.5,0.7C59,48.5,59.3,48.7,59.6,48.7
	z M53.5,32.1c0.1,0.2,0.3,0.3,0.5,0.3c0.1,0,0.2,0,0.3-0.1c0.3-0.2,0.4-0.5,0.2-0.8c-0.2-0.3-0.5-0.4-0.8-0.2
	C53.4,31.4,53.3,31.8,53.5,32.1z M52.4,33.6c0.1,0,0.3-0.1,0.4-0.2c0.2-0.2,0.2-0.6,0-0.9c-0.2-0.2-0.6-0.2-0.9,0
	c-0.2,0.2-0.2,0.6,0,0.9C52.1,33.5,52.3,33.6,52.4,33.6z M50.7,34.2c-0.2,0.3-0.1,0.7,0.2,0.8c0.1,0.1,0.2,0.1,0.3,0.1
	c0.2,0,0.4-0.1,0.5-0.3c0.2-0.3,0.1-0.7-0.2-0.8C51.2,33.8,50.8,33.9,50.7,34.2z M50.1,36.9c0.1,0,0.1,0,0.2,0
	c0.2,0,0.5-0.2,0.5-0.4c0.1-0.3,0-0.7-0.4-0.8c-0.3-0.1-0.7,0-0.8,0.4C49.6,36.4,49.8,36.8,50.1,36.9z M43.8,36.5
	c0.1,0,0.2,0,0.3-0.1c0.3-0.1,0.4-0.5,0.3-0.8c-0.2-0.3-0.5-0.4-0.8-0.3c-0.3,0.1-0.4,0.5-0.3,0.8C43.3,36.4,43.5,36.5,43.8,36.5z
	 M44.5,29.5c0.2,0,0.4-0.1,0.5-0.2c0.2-0.3,0.1-0.6-0.1-0.8c-0.3-0.2-0.6-0.2-0.8,0.1c-0.2,0.3-0.1,0.6,0.1,0.8
	C44.2,29.5,44.3,29.5,44.5,29.5z M45.8,47.1c-0.3-0.1-0.7,0-0.8,0.3c-0.1,0.3,0,0.7,0.3,0.8c0.1,0,0.1,0,0.2,0
	c0.2,0,0.5-0.1,0.6-0.4C46.2,47.5,46.1,47.2,45.8,47.1z M46.4,51.9c-0.2,0.2-0.2,0.6,0.1,0.9c0.1,0.1,0.2,0.1,0.4,0.1
	c0.2,0,0.3-0.1,0.5-0.2c0.2-0.3,0.2-0.6-0.1-0.8C47,51.7,46.6,51.7,46.4,51.9z M45.9,32c-0.3,0-0.6,0.2-0.6,0.6
	c0,0.3,0.2,0.6,0.6,0.6c0,0,0,0,0,0c0.3,0,0.6-0.2,0.6-0.6C46.5,32.2,46.2,32,45.9,32z M44.9,30.8c0.1,0.2,0.3,0.3,0.5,0.3
	c0.1,0,0.2,0,0.3-0.1c0.3-0.2,0.4-0.5,0.2-0.8c-0.2-0.3-0.5-0.4-0.8-0.2C44.9,30.2,44.7,30.5,44.9,30.8z M52.4,51.3
	c-0.3-0.1-0.6,0.1-0.7,0.4c-0.1,0.3,0.1,0.6,0.5,0.7c0,0,0.1,0,0.1,0c0.3,0,0.5-0.2,0.6-0.5C53,51.7,52.8,51.4,52.4,51.3z M50,51.4
	c-0.3,0.1-0.5,0.4-0.4,0.8c0.1,0.3,0.3,0.4,0.6,0.4c0.1,0,0.1,0,0.2,0v0c0.3-0.1,0.5-0.4,0.4-0.8C50.7,51.5,50.4,51.3,50,51.4z
	 M47.3,26.5c0.1,0,0.3-0.1,0.4-0.1c0.3-0.2,0.3-0.6,0.1-0.8c-0.2-0.3-0.6-0.3-0.8-0.1c-0.3,0.2-0.3,0.6-0.1,0.8
	C47,26.4,47.2,26.5,47.3,26.5z M45.8,27.9c0.1,0,0.3-0.1,0.4-0.2c0.2-0.2,0.2-0.6,0-0.8c-0.2-0.2-0.6-0.2-0.8,0
	c-0.2,0.2-0.2,0.6,0,0.8C45.5,27.9,45.7,27.9,45.8,27.9z M43.2,42.9c0.1,0,0.1,0,0.2,0c0.2,0,0.5-0.1,0.5-0.4c0.1-0.3,0-0.7-0.3-0.8
	c-0.3-0.1-0.7,0-0.8,0.3C42.7,42.4,42.9,42.8,43.2,42.9z M41.7,37L41.7,37c0.3,0,0.6-0.3,0.6-0.6s-0.3-0.6-0.6-0.6s-0.6,0.3-0.6,0.6
	C41.1,36.7,41.4,37,41.7,37z M41.1,38.6C41.1,38.6,41.1,38.6,41.1,38.6c0.4,0,0.6-0.2,0.6-0.6c0-0.3-0.2-0.6-0.5-0.6
	c-0.3,0-0.6,0.2-0.6,0.5C40.5,38.3,40.7,38.6,41.1,38.6z M41.1,40.7C41.1,40.7,41.1,40.7,41.1,40.7c0.4,0,0.6-0.3,0.6-0.6
	c0-0.3-0.3-0.6-0.6-0.6c-0.3,0-0.6,0.3-0.6,0.6C40.5,40.5,40.7,40.7,41.1,40.7z M45,50.4c-0.2,0.2-0.3,0.6-0.1,0.8
	c0.1,0.1,0.3,0.2,0.5,0.2c0.1,0,0.3-0.1,0.4-0.2c0.2-0.2,0.3-0.6,0.1-0.8C45.6,50.2,45.2,50.2,45,50.4z M41.3,41.5
	c-0.3,0-0.6,0.3-0.5,0.7c0,0.3,0.3,0.5,0.6,0.5c0,0,0.1,0,0.1,0v0c0.3,0,0.6-0.3,0.5-0.7C41.9,41.7,41.6,41.5,41.3,41.5z M44.7,48.9
	c-0.2-0.3-0.6-0.3-0.8-0.1c-0.3,0.2-0.3,0.6-0.1,0.8c0.1,0.2,0.3,0.2,0.5,0.2c0.1,0,0.2,0,0.4-0.1C44.9,49.5,44.9,49.1,44.7,48.9z
	 M44.6,44c0.1,0.2,0.3,0.2,0.5,0.2c0.1,0,0.2,0,0.4-0.1c0.3-0.2,0.3-0.6,0.1-0.8c-0.2-0.3-0.6-0.3-0.8-0.1
	C44.4,43.4,44.4,43.7,44.6,44z M45.2,45.6c0,0.3,0.3,0.5,0.6,0.5h0.1c0.3,0,0.6-0.3,0.5-0.7c0-0.3-0.3-0.6-0.7-0.5
	C45.4,45,45.2,45.3,45.2,45.6z M45,35.1c0.1,0.1,0.2,0.1,0.3,0.1c0.2,0,0.4-0.1,0.5-0.3c0.2-0.3,0.1-0.7-0.2-0.8
	c-0.3-0.2-0.7-0.1-0.8,0.2v0C44.6,34.5,44.7,34.9,45,35.1z M62.6,52.6c0.1,0.2,0.3,0.3,0.5,0.3c0.1,0,0.2,0,0.3-0.1
	c0.3-0.2,0.4-0.5,0.2-0.8c-0.1-0.3-0.5-0.4-0.8-0.3C62.6,52,62.5,52.4,62.6,52.6z M61.5,25.7c0.1,0.2,0.3,0.2,0.5,0.2
	c0.1,0,0.2,0,0.4-0.1c0.3-0.2,0.3-0.6,0.1-0.8c-0.2-0.3-0.6-0.3-0.8-0.1C61.4,25.1,61.3,25.5,61.5,25.7z M60.6,23.5
	c0,0.3,0.3,0.5,0.6,0.5h0.1c0.3,0,0.6-0.3,0.5-0.7c0-0.3-0.3-0.6-0.7-0.5C60.8,22.9,60.6,23.2,60.6,23.5z M56.2,22.7L56.2,22.7
	c0.4,0,0.6-0.3,0.6-0.7c0-0.3-0.3-0.6-0.7-0.5c-0.3,0-0.6,0.3-0.5,0.7C55.6,22.5,55.9,22.7,56.2,22.7z M60.3,22.7L60.3,22.7
	c0.4,0,0.6-0.2,0.7-0.5c0-0.3-0.2-0.6-0.5-0.7c-0.3,0-0.6,0.2-0.7,0.5C59.7,22.4,60,22.7,60.3,22.7z M63.4,27.2
	c0.3,0,0.6-0.3,0.6-0.6c0-0.3-0.3-0.6-0.6-0.6s-0.6,0.3-0.6,0.6C62.8,26.9,63.1,27.2,63.4,27.2z M55.4,24.3c0,0,0.1,0,0.1,0
	c0.3,0,0.5-0.2,0.6-0.5c0.1-0.3-0.1-0.6-0.5-0.7c-0.3-0.1-0.6,0.1-0.7,0.5v0C54.8,23.9,55,24.2,55.4,24.3z M52.8,27.3
	c0.1,0,0.1,0,0.2,0c0.3-0.1,0.5-0.4,0.4-0.8c-0.1-0.3-0.4-0.5-0.8-0.4c-0.3,0.1-0.5,0.4-0.4,0.8C52.3,27.1,52.5,27.3,52.8,27.3z
	 M54.5,26.1c0.2,0,0.3-0.1,0.5-0.2c0.2-0.2,0.2-0.6,0-0.8c-0.2-0.2-0.6-0.2-0.9,0c-0.2,0.2-0.2,0.6,0,0.8
	C54.3,26.1,54.4,26.1,54.5,26.1z M58.3,22.6c0.3,0,0.6-0.3,0.6-0.6c0-0.3-0.3-0.6-0.6-0.6s-0.6,0.3-0.6,0.6
	C57.7,22.4,57.9,22.6,58.3,22.6z M54.5,52.4c-0.2-0.2-0.6-0.2-0.8,0c-0.2,0.2-0.2,0.6,0,0.9c0.1,0.1,0.3,0.2,0.4,0.2
	c0.2,0,0.3-0.1,0.5-0.2C54.8,53,54.8,52.6,54.5,52.4z M48.9,26.4c0.2,0,0.3-0.1,0.4-0.2c0.2-0.2,0.2-0.6,0-0.8
	c-0.2-0.2-0.6-0.2-0.9,0c-0.2,0.2-0.2,0.6,0,0.9C48.6,26.3,48.7,26.4,48.9,26.4z M55.7,55.9c-0.3,0-0.6,0.2-0.7,0.5
	c-0.1,0.3,0.2,0.6,0.5,0.7c0,0,0.1,0,0.1,0c0.3,0,0.6-0.2,0.6-0.5C56.2,56.3,56,55.9,55.7,55.9z M48.1,53.5c0.1,0.1,0.3,0.2,0.4,0.2
	c0.2,0,0.3-0.1,0.4-0.2c0.2-0.2,0.2-0.6,0-0.8c-0.2-0.2-0.6-0.2-0.8,0C47.8,52.9,47.8,53.3,48.1,53.5z M55.4,55.2
	c0.3-0.1,0.5-0.4,0.4-0.8c0,0,0,0,0,0c-0.1-0.3-0.4-0.5-0.8-0.4c-0.3,0.1-0.5,0.4-0.4,0.8c0.1,0.3,0.3,0.4,0.6,0.4
	C55.3,55.2,55.4,55.2,55.4,55.2z M50.6,27.3c0,0,0.1,0,0.1,0c0.3,0,0.5-0.2,0.6-0.5c0.1-0.3-0.1-0.6-0.5-0.7
	c-0.3-0.1-0.6,0.1-0.7,0.5C50.1,26.9,50.3,27.3,50.6,27.3z M61,55.2c-0.3,0-0.6,0.2-0.6,0.6c0,0.3,0.3,0.6,0.6,0.6h0
	c0.3,0,0.6-0.3,0.6-0.6C61.6,55.4,61.4,55.2,61,55.2z M57.7,56.1c-0.3,0-0.6,0.2-0.6,0.6c0,0.3,0.2,0.6,0.6,0.6h0
	c0.3,0,0.6-0.2,0.6-0.6C58.3,56.4,58,56.1,57.7,56.1z M61.9,53.3c-0.3-0.2-0.6-0.1-0.8,0.2c-0.2,0.3-0.1,0.6,0.2,0.8
	c0.1,0.1,0.2,0.1,0.3,0.1c0.2,0,0.4-0.1,0.5-0.3C62.3,53.8,62.2,53.4,61.9,53.3z M59.7,56.1c-0.3,0-0.6,0.3-0.5,0.6
	c0,0.3,0.3,0.5,0.6,0.5h0c0.3,0,0.6-0.3,0.6-0.6C60.3,56.3,60,56,59.7,56.1z"/>
</svg>
