<?xml version="1.0" encoding="utf-8"?>
<!-- Generator: Adobe Illustrator 25.4.1, SVG Export Plug-In . SVG Version: 6.00 Build 0)  -->
<svg version="1.1" id="Layer_1" xmlns="http://www.w3.org/2000/svg" xmlns:xlink="http://www.w3.org/1999/xlink" x="0px" y="0px"
	 viewBox="0 0 75 75" style="enable-background:new 0 0 75 75;" xml:space="preserve">
<path d="M34.3,46.7c3.1-2,5.1-5.4,5.1-9.3c0-0.7-0.6-1.3-1.3-1.3H18.4c-0.7,0-1.3,0.6-1.3,1.3c0,3.9,2,7.3,5.1,9.3
	C16.3,48.2,11,51.8,7.7,56.9c-0.1,0.2-0.2,0.4-0.2,0.7v7.6c0,0.7,0.6,1.3,1.3,1.3h38.8c0.7,0,1.3-0.6,1.3-1.3v-7.6
	c0-0.2-0.1-0.5-0.2-0.7C45.2,51.7,40.1,48.2,34.3,46.7z M19.8,38.7h17c-0.6,4.1-4.2,7.3-8.5,7.3C23.9,46,20.4,42.8,19.8,38.7z
	 M42.5,64v-3.8c0-0.7-0.6-1.3-1.3-1.3c-0.7,0-1.3,0.6-1.3,1.3V64H16.2v-3.8c0-0.7-0.6-1.3-1.3-1.3c-0.7,0-1.3,0.6-1.3,1.3V64H10V58
	c4-5.9,10.9-9.5,18.3-9.5c7.2,0,14,3.5,18,9.5l0.1,5.9H42.5z M66.5,26.3l-4.7-0.7c-0.1-0.5-0.2-1-0.4-1.5l3.7-3
	c0.5-0.4,0.6-1.1,0.3-1.6L63.9,17c-0.3-0.5-1-0.8-1.5-0.5L58,18.2c-0.4-0.4-0.7-0.8-1.1-1.1l1.8-4.4c0.2-0.6,0-1.2-0.5-1.5l-2.6-1.5
	c-0.5-0.3-1.2-0.2-1.6,0.3l-3,3.7c-0.5-0.2-1-0.3-1.5-0.4l-0.7-4.7c-0.1-0.6-0.6-1.1-1.2-1.1h-3c-0.6,0-1.1,0.5-1.2,1.1l-0.7,4.7
	c-0.5,0.1-1,0.2-1.5,0.4l-3-3.7c-0.4-0.5-1.1-0.6-1.6-0.3L34,11.1c-0.5,0.3-0.8,1-0.5,1.5l1.7,4.4c-0.6,0.6-1.2,1.2-1.7,1.8
	c-0.4,0.5-0.4,1.3,0.2,1.8c0.5,0.4,1.3,0.4,1.8-0.2c0.6-0.7,1.3-1.4,2-2c0.4-0.3,0.6-0.9,0.4-1.4l-1.7-4.3l0.7-0.4l2.9,3.6
	c0.3,0.4,0.9,0.6,1.4,0.4c0.9-0.3,1.8-0.6,2.8-0.7c0.5-0.1,1-0.5,1-1l0.7-4.5h0.8l0.7,4.5c0.1,0.5,0.5,1,1,1c1,0.2,1.9,0.4,2.8,0.7
	c0.5,0.2,1.1,0,1.4-0.4l2.9-3.6l0.7,0.4l-1.7,4.3c-0.2,0.5,0,1.1,0.4,1.4c0.7,0.6,1.4,1.3,2,2c0.3,0.4,0.9,0.6,1.4,0.4l4.3-1.7
	l0.4,0.7l-3.6,2.9c-0.4,0.3-0.6,0.9-0.4,1.4c0.3,0.9,0.6,1.8,0.7,2.8c0.1,0.5,0.5,1,1,1l4.5,0.7v0.8l-4.5,0.6c-0.5,0.1-1,0.5-1.1,1
	c-0.1,1-0.4,1.9-0.7,2.8c-0.2,0.5,0,1.1,0.4,1.4l3.6,2.9L62.4,39l-4.3-1.7c-0.5-0.2-1.1,0-1.4,0.4c-0.6,0.8-1.3,1.4-2,2
	c-0.4,0.3-0.6,0.9-0.4,1.4l1.7,4.3l-0.7,0.4l-2.9-3.6c-0.3-0.4-0.9-0.6-1.4-0.4c-0.9,0.3-1.8,0.6-2.8,0.7c-0.5,0.1-1,0.5-1,1.1
	l-0.7,4.5h-0.8l-0.7-4.5c-0.1-0.5-0.5-1-1-1c-0.8-0.1-1.5-0.3-2.2-0.5c-0.7-0.2-1.4,0.1-1.6,0.8c-0.2,0.7,0.1,1.4,0.8,1.6
	c0.6,0.2,1.2,0.4,1.7,0.5l0.7,4.7c0.1,0.6,0.6,1.1,1.2,1.1h2.9c0.6,0,1.1-0.5,1.2-1.1l0.7-4.7c0.5-0.1,1-0.2,1.5-0.4l3,3.7
	c0.4,0.5,1.1,0.6,1.6,0.3l2.5-1.5c0.5-0.3,0.8-1,0.5-1.5l-1.8-4.4c0.4-0.4,0.8-0.7,1.1-1.1l4.4,1.8c0.6,0.2,1.2,0,1.5-0.5l1.5-2.5
	c0.3-0.5,0.2-1.2-0.3-1.6l-3.7-3c0.2-0.5,0.3-1,0.4-1.5l4.7-0.7c0.6-0.1,1.1-0.6,1.1-1.2v-2.9C67.6,26.9,67.1,26.4,66.5,26.3z
	 M47.3,36.3c-0.7,0.1-1.1,0.8-1,1.4c0.1,0.7,0.8,1.1,1.4,1c2-0.4,3.8-1.3,5.2-2.7c3.8-3.8,3.8-10,0-14c-3.8-3.8-10-3.8-14,0
	c-0.5,0.5-0.5,1.3,0,1.8c0.5,0.5,1.3,0.5,1.8,0c2.8-2.8,7.5-2.8,10.3,0c2.8,2.8,2.8,7.5,0,10.3C50.2,35.2,48.9,36,47.3,36.3z
	 M16.3,35.1h23.8c0.7,0,1.3-0.6,1.3-1.3c0-0.7-0.6-1.3-1.3-1.3h-0.9c-0.1-0.8-0.3-1.6-0.5-2.3h0c0-0.1-0.1-0.2-0.1-0.2c0,0,0,0,0,0
	c-1.4-4.2-5.5-7.3-10.4-7.3c-0.7,0-1.5,0.1-2.2,0.2c0,0,0,0,0,0c0,0,0,0-0.1,0c-0.2,0-0.5,0.1-0.7,0.2c-0.1,0-0.2,0.1-0.3,0.1
	c-0.1,0-0.3,0.1-0.4,0.1c-0.2,0.1-0.3,0.1-0.5,0.2c-0.1,0-0.2,0.1-0.3,0.1c-0.2,0.1-0.3,0.1-0.5,0.2c-0.1,0.1-0.2,0.1-0.3,0.2
	c-0.1,0.1-0.3,0.2-0.4,0.2c-0.1,0.1-0.2,0.1-0.4,0.2c-0.1,0.1-0.2,0.1-0.3,0.2c-0.1,0.1-0.3,0.2-0.4,0.3c-0.1,0.1-0.1,0.1-0.2,0.2
	c-0.2,0.1-0.3,0.3-0.5,0.4c-0.1,0.1-0.1,0.1-0.2,0.2c-0.1,0.1-0.3,0.3-0.4,0.4c-0.1,0.1-0.1,0.1-0.2,0.2c-0.1,0.1-0.2,0.2-0.3,0.3
	c-0.1,0.1-0.2,0.3-0.3,0.4c0,0,0,0.1-0.1,0.1c-1.1,1.5-1.9,3.4-2.1,5.3h-0.8c-0.7,0-1.3,0.6-1.3,1.3C15,34.5,15.6,35.1,16.3,35.1z
	 M23.3,26.8L23.3,26.8c0.4-0.3,0.9-0.6,1.4-0.8v2.3c0,0.7,0.6,1.3,1.3,1.3c0.7,0,1.3-0.6,1.3-1.3v-2.9c0.3,0,0.6-0.1,0.9-0.1
	c0.4,0,0.7,0,1.1,0.1v2.9c0,0.7,0.6,1.3,1.3,1.3c0.7,0,1.3-0.6,1.3-1.3v-2.2c0.2,0.1,0.5,0.2,0.7,0.3c2.2,1.3,3.7,3.5,4.1,6.1H19.8
	C20.1,30.2,21.4,28.2,23.3,26.8z"/>
</svg>
