<?xml version="1.0" encoding="utf-8"?>
<!-- Generator: Adobe Illustrator 25.4.1, SVG Export Plug-In . SVG Version: 6.00 Build 0)  -->
<svg version="1.1" id="Layer_1" xmlns="http://www.w3.org/2000/svg" xmlns:xlink="http://www.w3.org/1999/xlink" x="0px" y="0px"
	 viewBox="0 0 75 75" style="enable-background:new 0 0 75 75;" xml:space="preserve">
<g>
	
		<g id="_x32_49_x2C__Architect_x2C__Architecture_x2C__Building_x2C__Company_x2C__Construction_00000153681666154942538520000002972900866655369640_">
		<g>
			<rect x="28.9" y="20.7" width="2.5" height="2.5"/>
			<rect x="32.5" y="20.7" width="3.7" height="2.5"/>
			<rect x="37.5" y="20.7" width="2.5" height="2.5"/>
			<rect x="46.1" y="20.7" width="2.5" height="2.5"/>
			<rect x="41.2" y="20.7" width="3.7" height="2.5"/>
			<rect x="28.9" y="24.3" width="2.5" height="2.5"/>
			<rect x="32.5" y="24.3" width="3.7" height="2.5"/>
			<rect x="37.5" y="24.3" width="2.5" height="2.5"/>
			<rect x="46.1" y="24.3" width="2.5" height="2.5"/>
			<rect x="41.2" y="24.3" width="3.7" height="2.5"/>
			<rect x="28.9" y="28.1" width="2.5" height="2.5"/>
			<rect x="32.5" y="28.1" width="3.7" height="2.5"/>
			<rect x="37.5" y="28.1" width="2.5" height="2.5"/>
			<rect x="46.1" y="28.1" width="2.5" height="2.5"/>
			<rect x="41.2" y="28.1" width="3.7" height="2.5"/>
			<rect x="28.9" y="31.7" width="2.5" height="2.5"/>
			<rect x="32.5" y="31.7" width="3.7" height="2.5"/>
			<rect x="37.5" y="31.7" width="2.5" height="2.5"/>
			<rect x="46.1" y="31.7" width="2.5" height="2.5"/>
			<rect x="41.2" y="31.7" width="3.7" height="2.5"/>
			<rect x="28.9" y="35.4" width="2.5" height="2.5"/>
			<rect x="32.5" y="35.4" width="3.7" height="2.5"/>
			<rect x="37.5" y="35.4" width="2.5" height="2.5"/>
			<rect x="46.1" y="35.4" width="2.5" height="2.5"/>
			<rect x="41.2" y="35.4" width="3.7" height="2.5"/>
			<rect x="28.9" y="39.1" width="2.5" height="2.5"/>
			<rect x="32.5" y="39.1" width="3.7" height="2.5"/>
			<rect x="37.5" y="39.1" width="2.5" height="2.5"/>
			<rect x="46.1" y="39.1" width="2.5" height="2.5"/>
			<rect x="41.2" y="39.1" width="3.7" height="2.5"/>
			<rect x="28.9" y="42.8" width="2.5" height="2.5"/>
			<rect x="32.5" y="42.8" width="3.7" height="2.5"/>
			<rect x="37.5" y="42.8" width="2.5" height="2.5"/>
			<rect x="46.1" y="42.8" width="2.5" height="2.5"/>
			<rect x="41.2" y="42.8" width="3.7" height="2.5"/>
			<rect x="28.9" y="46.4" width="2.5" height="2.5"/>
			<rect x="55.9" y="33" width="3.7" height="2.5"/>
			<rect x="55.9" y="36.6" width="3.7" height="2.5"/>
			<rect x="55.9" y="40.3" width="3.7" height="2.5"/>
			<rect x="55.9" y="44" width="3.7" height="2.5"/>
			<rect x="55.9" y="47.7" width="3.7" height="2.5"/>
			<rect x="32.5" y="46.4" width="3.7" height="2.5"/>
			<rect x="37.5" y="46.4" width="2.5" height="2.5"/>
			<rect x="46.1" y="46.4" width="2.5" height="2.5"/>
			<rect x="41.2" y="46.4" width="3.7" height="2.5"/>
			<rect x="28.9" y="50.1" width="2.5" height="2.5"/>
			<rect x="32.5" y="50.1" width="3.7" height="2.5"/>
			<rect x="37.5" y="50.1" width="2.5" height="2.5"/>
			<rect x="46.1" y="50.1" width="2.5" height="2.5"/>
			<rect x="41.2" y="50.1" width="3.7" height="2.5"/>
			<rect x="28.9" y="53.8" width="2.5" height="2.5"/>
			<rect x="32.5" y="53.8" width="3.7" height="2.5"/>
			<rect x="37.5" y="53.8" width="2.5" height="2.5"/>
			<rect x="46.1" y="53.8" width="2.5" height="2.5"/>
			<rect x="15.4" y="29.2" width="2.5" height="27"/>
			<rect x="19.1" y="29.2" width="2.5" height="27"/>
			<rect x="41.2" y="53.8" width="3.7" height="2.5"/>
			<path d="M65.7,62.4h-1.3V29.2c0-0.7-0.6-1.3-1.3-1.3h-9.8V17c0-0.7-0.6-1.3-1.3-1.3h-4.9v-3.6c0-0.7-0.6-1.3-1.3-1.3h-6.8V8.3
				c0-0.7-0.6-1.3-1.3-1.3s-1.3,0.6-1.3,1.3v2.5h-6.8c-0.7,0-1.3,0.6-1.3,1.3v3.7h-3.7c-0.7,0-1.3,0.6-1.3,1.3v7.4H11.7
				c-0.7,0-1.3,0.6-1.3,1.3v36.8H9.2c-0.7,0-1.3,0.6-1.3,1.3c0,0.7,0.6,1.3,1.3,1.3c4.1,0,53.9,0,56.4,0c0.7,0,1.3-0.6,1.3-1.3
				C66.9,62.9,66.3,62.4,65.7,62.4z M31.4,13.3h13.5v2.5H31.4V13.3z M12.9,26.8H24v35.6H12.9V26.8z M26.5,18.2c3.7,0,21.8,0,24.5,0
				c0,3.7,0,43.2,0,44.2H26.5C26.5,60.5,26.5,20.3,26.5,18.2z M53.5,62.4V30.5H62v31.9H53.5z"/>
		</g>
	</g>
	<g id="Layer_1_00000172438234636372468150000011125994848805269640_">
	</g>
</g>
</svg>
