<?xml version="1.0" encoding="utf-8"?>
<!-- Generator: Adobe Illustrator 25.4.1, SVG Export Plug-In . SVG Version: 6.00 Build 0)  -->
<svg version="1.1" id="Layer_1" xmlns="http://www.w3.org/2000/svg" xmlns:xlink="http://www.w3.org/1999/xlink" x="0px" y="0px"
	 viewBox="0 0 75 75" style="enable-background:new 0 0 75 75;" xml:space="preserve">
<g>
	<g id="_x32_47_x2C__Architect_x2C__Circle_x2C__Compass_x2C__Measure_x2C__Tool">
		<g>
			<path d="M36.7,55.1"/>
			<path d="M61.3,48.2H51l-6.8-17.5c-0.1-0.3-0.4-0.5-0.6-0.7v-3.9c0-0.5-0.3-0.9-0.7-1.1c1.6-3.1,0.6-6.9-2.1-8.9v-3
				c0-2.3-1.8-4.1-4.1-4.1c-2.3,0-4.1,1.8-4.1,4.1v3c-2.8,2-3.7,5.8-2.1,9c-0.4,0.2-0.6,0.6-0.6,1.1v3.9c-0.3,0.1-0.5,0.4-0.7,0.7
				l-7.1,18.1h-10c-0.7,0-1.3,0.6-1.3,1.3c0,0.7,0.6,1.3,1.3,1.3h9l-0.4,1.1c-0.1,0.3-0.1,0.6,0,0.9l2.7,6.8l-1,2.5h-3.9
				c-0.7,0-1.3,0.6-1.3,1.3c0,0.7,0.6,1.3,1.3,1.3c9.7,0,30.1,0,36.6,0c0.7,0,1.3-0.6,1.3-1.3c0-0.7-0.6-1.3-1.3-1.3h-4l-0.9-2.5
				l2.7-6.8c0.1-0.3,0.1-0.6,0-0.9l-0.7-1.8h9.3c0.7,0,1.3-0.6,1.3-1.3C62.7,48.8,61.9,48.2,61.3,48.2z M48.3,48.2h-3l-6.1-15.7h3
				L48.3,48.2z M40.9,48.2c-0.5-1.8-2.2-3.1-4.2-3.1c-2.2,0-4,1.6-4.3,3.8h-1.8l6.1-15.8l5.9,15.1H40.9z M38.6,49.4
				c0,1-0.8,1.9-1.9,1.9c-1.1,0-1.9-0.8-1.9-1.9c0-1.1,0.8-1.9,1.9-1.9C37.8,47.5,38.6,48.4,38.6,49.4z M32.3,27.5c3,0,7.2,0,8.8,0
				V30c-1.8,0-7,0-8.8,0V27.5z M36.6,11.5c0.9,0,1.6,0.7,1.6,1.6V15c-1-0.2-2.1-0.3-3.2,0v-1.8C35,12.2,35.7,11.5,36.6,11.5z
				 M36.6,17.3c2.5,0,4.5,2,4.5,4.5c0,1.1-0.4,2.2-1.2,3h-6.7c-0.8-0.8-1.2-1.9-1.2-3C32.1,19.4,34.1,17.3,36.6,17.3z M31.2,32.5h3
				l-6.3,16.3h-3L31.2,32.5z M23.8,51.3h3l-2.1,5.4L23.2,53L23.8,51.3z M25,62.7c1.1-2.8,0.3-0.6,4.4-11.4h3.2
				c0.7,1.5,2.2,2.5,4,2.5c2,0,3.7-1.3,4.2-3.1h2.7l3.8,9.9l0.8,2.1H25z M50.2,53l-1.5,3.8l-2.3-6h3L50.2,53z"/>
			<path d="M49.9,27.4c0.7,0,1.3,0.6,1.3,1.3c0,0.7-0.6,1.3-1.3,1.3s-1.3-0.6-1.3-1.3C48.6,27.9,49.2,27.4,49.9,27.4z"/>
			<path d="M23.5,16.1c0.7,0,1.3,0.6,1.3,1.3c0,0.7-0.6,1.3-1.3,1.3c-0.7,0-1.3-0.6-1.3-1.3C22.2,16.7,22.8,16.1,23.5,16.1z"/>
			<path d="M17.1,28.7c2.1,0,3.8-1.7,3.8-3.8c0-2.1-1.7-3.8-3.8-3.8c-2.1,0-3.8,1.7-3.8,3.8C13.3,27,15,28.7,17.1,28.7z M17.1,23.6
				c0.7,0,1.3,0.6,1.3,1.3c0,0.7-0.6,1.3-1.3,1.3c-0.7,0-1.3-0.6-1.3-1.3C15.8,24.2,16.4,23.6,17.1,23.6z"/>
			<path d="M59.4,43.8c2.4,0,4.4-2,4.4-4.4c0-2.4-2-4.4-4.4-4.4c-2.4,0-4.4,2-4.4,4.4C54.9,41.8,56.9,43.8,59.4,43.8z M59.4,37.5
				c1,0,1.9,0.8,1.9,1.9c0,1.1-0.8,1.9-1.9,1.9s-1.9-0.9-1.9-2C57.5,38.2,58.3,37.5,59.4,37.5z"/>
		</g>
	</g>
	<g id="Layer_1_00000106869626218731830230000004990444775064539010_">
	</g>
</g>
</svg>
