<?xml version="1.0" encoding="utf-8"?>
<!-- Generator: Adobe Illustrator 25.4.1, SVG Export Plug-In . SVG Version: 6.00 Build 0)  -->
<svg version="1.1" id="Layer_1" xmlns="http://www.w3.org/2000/svg" xmlns:xlink="http://www.w3.org/1999/xlink" x="0px" y="0px"
	 viewBox="0 0 75 75" style="enable-background:new 0 0 75 75;" xml:space="preserve">
<g>
	<g id="_x32_42_x2C__Architect_x2C__Creative_x2C__Design_x2C__Stationery_x2C__Tool">
		<g>
			<path d="M57.2,42.7H44l-0.5-6.4c5.1-2.4,8.7-7.6,8.7-13.6c0-5.2-2.6-10-7.1-12.7c-0.8-0.5-1.9,0.1-1.9,1.1v9.8l-6,4.3l-6-4.3
				v-9.8c0-1-1.1-1.6-1.9-1.1c-4.4,2.8-7.1,7.5-7.1,12.7c0,6,3.6,11.2,8.7,13.6l-0.5,6.4H15.9c-0.7,0-1.3,0.6-1.3,1.3v8.8
				c0,0.7,0.6,1.3,1.3,1.3h13.6L29,60.3c-0.4,4.5,3.4,8.6,8.2,8.6c4.8,0,8.5-4.1,8.2-8.8l-0.6-6.2h12.3c0.7,0,1.3-0.6,1.3-1.3v-8.7
				C58.4,43.2,57.8,42.7,57.2,42.7z M24.7,22.7c0-3.5,1.5-6.8,4-9.2v7.9c0,0.4,0.2,0.8,0.5,1l7.3,5.2c0.4,0.3,1,0.3,1.5,0l7.3-5.2
				c0.3-0.2,0.5-0.6,0.5-1v-7.9c2.5,2.3,4,5.6,4,9.2c0,6.9-5.6,12.5-12.5,12.5C30.3,35.2,24.7,29.5,24.7,22.7z M33.3,37.1
				c2.5,0.7,5.2,0.7,7.8,0l0.4,5.5h-8.6L33.3,37.1z M42.8,60.3c0.1,1.6-0.4,3.1-1.5,4.3c-2.2,2.4-6.1,2.5-8.4,0
				c-1.1-1.2-1.6-2.7-1.5-4.3l0.5-6.4h10.4L42.8,60.3z M55.9,51.4h-1.3v-2.5c0-0.7-0.6-1.3-1.3-1.3c-0.7,0-1.3,0.6-1.3,1.3v2.5h-1.3
				v-1.3c0-0.7-0.6-1.3-1.3-1.3c-0.7,0-1,0.7-1,1.4v1.3h-1.3v-2.6c0-0.7-0.6-1.3-1.3-1.3s-1.3,0.6-1.3,1.3v2.5h-1.3v-1.3
				c0-0.7-0.6-1.3-1.3-1.3c-0.7,0-1.3,0.6-1.3,1.3v1.3h-1.3v-2.5c0-0.7-0.6-1.3-1.3-1.3c-0.7,0-1.3,0.6-1.3,1.3v2.5h-1.3v-1.3
				c0-0.7-0.6-1.3-1.3-1.3c-0.7,0-0.7,0.7-0.7,1.4v1.3h-1.3v-2.6c0-0.7-0.6-1.3-1.3-1.3c-0.7,0-1.3,0.6-1.3,1.3v2.5h-1.1v-1.3
				c0-0.7-0.6-1.3-1.3-1.3c-0.7,0-1.3,0.6-1.3,1.3v1.3h-1.3v-2.5c0-0.7-0.6-1.3-1.3-1.3c-0.7,0-1.3,0.6-1.3,1.3v2.5h-1.3v-1.3
				c0-0.7-0.6-1.3-1.3-1.3c-0.7,0-0.9,0.7-0.9,1.4v1.3h-1.3v-6.3c1,0,38.1,0,38.8,0V51.4z"/>
			<path d="M37.2,56.4c-2.1,0-3.8,1.7-3.8,3.8c0,2.1,1.7,3.8,3.8,3.8c2.1,0,3.8-1.7,3.8-3.8C41,58.1,39.2,56.4,37.2,56.4z
				 M37.2,61.4c-0.7,0-1.3-0.6-1.3-1.3c0-0.7,0.6-1.3,1.3-1.3c0.7,0,1.3,0.6,1.3,1.3C38.4,60.8,37.8,61.4,37.2,61.4z"/>
			<path d="M58.4,25.2c-2.1,0-3.8,1.7-3.8,3.8c0,2.1,1.7,3.8,3.8,3.8c2.1,0,3.8-1.7,3.8-3.8C62.2,26.9,60.5,25.2,58.4,25.2z
				 M58.4,30.2c-0.7,0-1.3-0.6-1.3-1.3c0-0.7,0.6-1.3,1.3-1.3c0.7,0,1.3,0.6,1.3,1.3C59.7,29.6,59.1,30.2,58.4,30.2z"/>
			<path d="M15.3,18.9c1.7,0,3.1-1.4,3.1-3.1c0-1.7-1.4-3.1-3.1-3.1s-3.1,1.4-3.1,3.1C12.2,17.5,13.6,18.9,15.3,18.9z M15.3,15.2
				c0.3,0,0.6,0.3,0.6,0.6c0,0.3-0.3,0.6-0.6,0.6s-0.6-0.3-0.6-0.6C14.7,15.5,14.9,15.2,15.3,15.2z"/>
		</g>
	</g>
	<g id="Layer_1_00000036956476870182472010000015815341586945750431_">
	</g>
</g>
</svg>
