<?xml version="1.0" encoding="utf-8"?>
<!-- Generator: Adobe Illustrator 25.4.1, SVG Export Plug-In . SVG Version: 6.00 Build 0)  -->
<svg version="1.1" id="Layer_1" xmlns="http://www.w3.org/2000/svg" xmlns:xlink="http://www.w3.org/1999/xlink" x="0px" y="0px"
	 viewBox="0 0 75 75" style="enable-background:new 0 0 75 75;" xml:space="preserve">
<g>
	<g id="_x32_27_x2C__Architect_x2C__Design_x2C__Document_x2C__Sketch_00000004534088284901092230000011504432452423497866_">
		<g>
			<path d="M65.2,34.7c-0.7,0-1.2,0.6-1.2,1.2v19H20.2V18.1c0-0.7-0.6-1.2-1.2-1.2h-8.3c-0.7,0-1.2,0.6-1.2,1.2v46.3
				c0,0.7,0.6,1.2,1.2,1.2c2.5,0,51.6,0,54.5,0c0.7,0,1.2-0.6,1.2-1.2c0-1.4,0-27.2,0-28.5C66.4,35.2,65.8,34.7,65.2,34.7z M11.8,62
				h2.4c0.7,0,1.2-0.6,1.2-1.2s-0.6-1.2-1.2-1.2h-2.4v-1.2h2.4c0.7,0,1.2-0.6,1.2-1.2c0-0.7-0.6-1.2-1.2-1.2h-2.4v-1.2h2.4
				c0.7,0,1.2-0.6,1.2-1.2c0-0.7-0.6-1.2-1.2-1.2h-2.4v-1.2h2.4c0.7,0,1.2-0.6,1.2-1.2c0-0.7-0.6-1.2-1.2-1.2h-2.4v-0.7h2.4
				c0.7,0,1.2-0.6,1.2-1.2c0-0.7-0.6-1.2-1.2-1.2h-2.4V44h2.4c0.7,0,1.2-0.6,1.2-1.2c0-0.7-0.6-1.2-1.2-1.2h-2.4v-1.2h2.4
				c0.7,0,1.2-0.6,1.2-1.2c0-0.7-0.6-0.9-1.2-0.9h-2.4V37h2.4c0.7,0,1.2-0.6,1.2-1.2s-0.6-1.2-1.2-1.2h-2.4v-1h2.4
				c0.7,0,1.2-0.6,1.2-1.2c0-0.7-0.6-1.2-1.2-1.2h-2.4v-1.2h2.4c0.7,0,1.2-0.6,1.2-1.2c0-0.7-0.6-1.2-1.2-1.2h-2.4v-1.2h2.4
				c0.7,0,1.2-0.6,1.2-1.2c0-0.7-0.6-1.2-1.2-1.2h-2.4v-1.2h2.4c0.7,0,1.2-0.6,1.2-1.2c0-0.7-0.6-1.2-1.2-1.2h-2.4v-0.7h6
				c0,2.1,0,41.8,0,43.9h-6V62z M64,63.2H20.2v-6h4.7v2.4c0,0.7,0.6,1.2,1.2,1.2c0.7,0,1.2-0.6,1.2-1.2v-2.4h1v2.4
				c0,0.7,0.6,1.2,1.2,1.2c0.7,0,1.2-0.6,1.2-1.2v-2.4h1.2v2.4c0,0.7,0.6,1.2,1.2,1.2c0.7,0,1.2-0.6,1.2-1.2v-2.4h1.2v2.4
				c0,0.7,0.6,1.2,1.2,1.2c0.7,0,1.2-0.6,1.2-1.2v-2.4h1.2v2.4c0,0.7,0.6,1.2,1.2,1.2c0.7,0,1.2-0.6,1.2-1.2v-2.4h0.7v2.4
				c0,0.7,0.6,1.2,1.2,1.2c0.7,0,1.2-0.6,1.2-1.2v-2.4h1.2v2.4c0,0.7,0.6,1.2,1.2,1.2c0.7,0,1.2-0.6,1.2-1.2v-2.4H50v2.4
				c0,0.7,0.6,1.2,1.2,1.2c0.7,0,1.2-0.6,1.2-1.2v-2.4h1.2v2.4c0,0.7,0.6,1.2,1.2,1.2c0.7,0,1.2-0.6,1.2-1.2v-2.4h0.7v2.4
				c0,0.7,0.6,1.2,1.2,1.2c0.7,0,1.2-0.6,1.2-1.2v-2.4h1.2v2.4c0,0.7,0.6,1.2,1.2,1.2c0.7,0,1.2-0.6,1.2-1.2v-2.4h1.2v6H64z"/>
			<path d="M27.5,40.5c0,0.1-1.6,5.7-2.6,9.3c-0.3,0.9,0.6,1.7,1.4,1.4c1.9-0.5,9.2-2.5,9.2-2.6c0.2-0.1,0.4-0.2,0.5-0.3
				c0.2,0,23.6-23.4,23.6-23.4c0.1-0.1,2.6-2.6,2.6-2.6c1.7-1.7,1.1-1.1,2.8-2.8c1.7-1.7,1.7-4.4,0-6.1l-2.3-2.3
				c-1.7-1.7-4.4-1.7-6.1,0L27.8,40.1C27.6,40.2,27.5,40.3,27.5,40.5z M29.4,42.4l3.3,1.1l1.1,3.3l-6,1.6L29.4,42.4z M52,19.1
				l1.7,1.7L33.3,41.2l-2.6-0.9L52,19.1z M54.6,16.5l5,5l-0.9,0.9l-5-5L54.6,16.5z M35.8,45.4L35,42.8l20.5-20.5l1.7,1.7L35.8,45.4z
				 M58.2,12.9c0.8-0.8,2-0.8,2.8,0l2.3,2.3c0.8,0.8,0.8,2,0,2.8l-2,2l-5-5L58.2,12.9z"/>
			<path d="M23.7,43c0.7,0,1.2-0.6,1.2-1.2V16.9h8.3c0.7,0,1.2-0.6,1.2-1.2c0-0.7-0.6-1.2-1.2-1.2h-9.5c-0.7,0-1.2,0.6-1.2,1.2v26.1
				C22.5,42.4,23,43,23.7,43z"/>
		</g>
	</g>
	<g id="Layer_1_00000049189522903385478680000007158823089767879579_">
	</g>
</g>
</svg>
