<?xml version="1.0" encoding="utf-8"?>
<!-- Generator: Adobe Illustrator 25.4.1, SVG Export Plug-In . SVG Version: 6.00 Build 0)  -->
<svg version="1.1" id="Layer_1" xmlns="http://www.w3.org/2000/svg" xmlns:xlink="http://www.w3.org/1999/xlink" x="0px" y="0px"
	 viewBox="0 0 75 75" style="enable-background:new 0 0 75 75;" xml:space="preserve">
<style type="text/css">
	.st0{fill:#1E81CE;}
</style>
<path class="st0" d="M61.3,60.3v-3.8c0-0.3-0.3-0.6-0.6-0.6h-0.6v-8.2c0-1.5-0.5-2.9-1.6-4c-1.1-1-2.5-1.6-4-1.6c0,0,0,0-0.1,0
	c0,0,0,0-0.1,0h-9.5c-0.1,0-0.2,0-0.3,0.1c-2.1,1.5-4.5,2.2-7.2,2.2c-2.5,0-4.9-0.8-7.1-2.2C30.2,42,30.1,42,30,42h-9.6
	c0,0-0.1,0-0.1,0c-1.4,0.1-2.7,0.6-3.7,1.6c-1,1.1-1.6,2.5-1.6,4v8.2h-0.7c-0.3,0-0.6,0.3-0.6,0.6v3.8c0,0.3,0.3,0.6,0.6,0.6H15v4.4
	c0,0.3,0.3,0.6,0.6,0.6c0.3,0,0.6-0.3,0.6-0.6v-4.4H20v4.4c0,0,0,0,0,0.1c0,0.3,0.3,0.6,0.6,0.6h33.6c0,0,0,0,0,0c0,0,0.1,0,0.1,0
	c0.3,0,0.6-0.3,0.6-0.6v-4.4h3.9v4.4c0,0.3,0.3,0.6,0.6,0.6c0,0,0.1,0,0.1,0c0,0,0.1,0,0.1,0c0.3,0,0.6-0.2,0.6-0.6v-4.4h0.4
	C61.1,60.9,61.4,60.7,61.3,60.3z M16.2,47.6c0-1.2,0.4-2.3,1.2-3.1c0.7-0.6,1.6-1.1,2.5-1.2v12.5h-3.7V47.6z M20,59.7h-5v-2.5h5
	V59.7z M44.5,64.7H29.7v-5.2h14.8V64.7z M53.8,56.3C53.8,56.4,53.7,56.4,53.8,56.3l0,3.9c0,0,0,0.1,0,0.1v4.4h-8.1v-6.4H28.5v6.4
	h-7.3v-4.2c0-0.1,0-0.2,0-0.3v-3.7c0,0,0-0.1,0-0.1V43.2h7.5l1.3,0.2c2.3,1.4,4.8,2.2,7.4,2.2c2.8,0,5.4-0.8,7.7-2.3l1.3,0h7.2V56.3
	z M55,43.3c1,0.1,1.9,0.6,2.6,1.3c0.8,0.8,1.3,1.9,1.3,3.1v8.2H55V43.3z M60.1,59.7h-5v-2.5h5V59.7z M26.3,28.2h0.3
	c0.1,2.9,1.2,6.1,2.8,8.7c2.1,3.1,5,4.8,8.3,4.8c3.2,0,6.2-1.7,8.2-4.8c1.8-2.5,2.7-5.7,2.8-8.7h0.4c0.7,0,1.3-0.2,1.6-0.7
	c0.5-0.5,0.8-1.1,0.8-1.8c0-1.2-0.7-2.1-1.8-2.5c-0.2-2.3-1-4.4-2.2-6.3c-1.3-1.8-3-3.4-5-4.2c0-0.4-0.1-0.9-0.4-1.2
	c-0.4-0.4-0.9-0.7-1.4-0.8c-0.2-0.9-1-1.5-2-1.5h-2.4c-0.9,0-1.6,0.6-1.9,1.4c-0.6,0-1.1,0.3-1.5,0.8c-0.3,0.4-0.5,1-0.4,1.5
	c-1.8,0.8-3.6,2.3-4.8,4.1c-1.3,1.8-2,3.9-2.2,6.1c-0.5,0.1-1,0.3-1.4,0.7c-0.4,0.5-0.7,1.1-0.7,1.8C23.7,27.1,24.9,28.2,26.3,28.2z
	 M37.6,40.4c-6.1,0-9.6-7.1-9.8-12.2h19.7C47.4,33.2,43.8,40.4,37.6,40.4z M40.9,11.9c0.1,0,0.3,0.1,0.4,0.3
	c0.1,0.2,0.2,0.5,0.1,0.7l-1,3.4c-0.1,0.3-0.2,0.5-0.5,0.6L40.9,11.9z M35.7,11.1c0.1-0.4,0.4-0.7,0.8-0.7h2.4
	c0.4,0,0.8,0.3,0.8,0.7c0,0.1,0,0.1,0,0.2L38.5,17h-1.6l-1.2-5.7C35.7,11.2,35.7,11.2,35.7,11.1z M34.1,12c0.1-0.1,0.3-0.2,0.4-0.3
	l1.1,5.1c-0.2-0.1-0.4-0.4-0.6-0.7l-0.9-3.1c0,0,0,0,0-0.1c0,0,0,0,0,0L34,12.7C33.9,12.4,34,12.2,34.1,12z M33.1,14.1l0.7,2.4
	c0.3,1,1.2,1.7,2.3,1.7h3.1c1.1,0,2.1-0.7,2.3-1.6l0.8-2.7c3.3,1.6,5.8,5.2,6.1,9.1H27.1C27.4,19.2,29.8,15.7,33.1,14.1z M25.4,24.7
	c0.2-0.3,0.6-0.4,0.9-0.4H49c0.7,0,1.3,0.6,1.3,1.3c0,0.3-0.2,0.7-0.4,0.9C49.7,26.9,49.3,27,49,27H26.3c-0.7,0-1.3-0.6-1.3-1.3
	C25,25.3,25.2,24.9,25.4,24.7z M24.7,58.2c-0.3,0-0.6,0.3-0.6,0.6v0c0,0.3,0.3,0.6,0.6,0.6s0.6-0.3,0.6-0.6S25,58.2,24.7,58.2z
	 M24.7,60.4c-0.3,0-0.6,0.3-0.6,0.6v0c0,0.3,0.3,0.6,0.6,0.6s0.6-0.3,0.6-0.6S25,60.4,24.7,60.4z M24.7,56c-0.3,0-0.6,0.3-0.6,0.6v0
	c0,0.3,0.3,0.6,0.6,0.6s0.6-0.3,0.6-0.6S25,56,24.7,56z M24.7,53.8c-0.3,0-0.6,0.3-0.6,0.6v0c0,0.3,0.3,0.6,0.6,0.6s0.6-0.3,0.6-0.6
	S25,53.8,24.7,53.8z M26.3,50.8c0.1,0,0.1,0,0.2,0c0.3-0.1,0.5-0.4,0.4-0.8l0,0c-0.1-0.3-0.4-0.5-0.8-0.4c-0.3,0.1-0.5,0.4-0.4,0.8
	C25.9,50.7,26.1,50.8,26.3,50.8z M24.7,62.7c-0.3,0-0.6,0.3-0.6,0.6v0c0,0.3,0.3,0.6,0.6,0.6s0.6-0.3,0.6-0.6S25,62.7,24.7,62.7z
	 M26.3,48.1L26.3,48.1c-0.1-0.3-0.4-0.5-0.7-0.4c-0.3,0.1-0.5,0.4-0.4,0.8c0.1,0.3,0.3,0.4,0.6,0.4c0.1,0,0.1,0,0.2,0
	C26.2,48.8,26.4,48.4,26.3,48.1z M26.4,53.4L26.4,53.4c-0.3,0-0.6,0.3-0.6,0.6s0.3,0.6,0.6,0.6S27,54.3,27,54S26.8,53.4,26.4,53.4z
	 M45.5,47c0.1,0,0.1,0,0.2,0c0.3,0,0.5-0.2,0.6-0.4l0,0c0.1-0.3-0.1-0.6-0.4-0.7c-0.3-0.1-0.7,0.1-0.7,0.4S45.2,46.9,45.5,47z
	 M49.7,47c0.1,0,0.1,0,0.2,0c0.3,0,0.5-0.2,0.6-0.4l0,0c0.1-0.3-0.1-0.6-0.4-0.7c-0.3-0.1-0.7,0.1-0.7,0.4
	C49.2,46.5,49.3,46.9,49.7,47z M24.5,45.1c0.1,0,0.1,0,0.2,0c0.3-0.1,0.5-0.4,0.4-0.7l0,0c-0.1-0.3-0.4-0.5-0.7-0.4
	c-0.3,0.1-0.5,0.4-0.4,0.8C24,44.9,24.3,45.1,24.5,45.1z M27.5,51.9c-0.1-0.3-0.4-0.5-0.7-0.4c-0.3,0.1-0.5,0.4-0.4,0.8
	c0.1,0.3,0.3,0.4,0.6,0.4c0.1,0,0.1,0,0.2,0C27.4,52.6,27.6,52.3,27.5,51.9L27.5,51.9z M24.9,45.8c-0.3,0.1-0.4,0.5-0.3,0.8
	c0.1,0.2,0.3,0.4,0.5,0.4c0.1,0,0.2,0,0.2-0.1c0.3-0.1,0.4-0.5,0.3-0.8l0,0C25.5,45.8,25.2,45.7,24.9,45.8z M28.7,45.1
	c0.1,0,0.1,0,0.2,0c0.3-0.1,0.5-0.4,0.4-0.7l0,0c-0.1-0.3-0.4-0.5-0.7-0.4c-0.3,0.1-0.5,0.4-0.4,0.8C28.2,44.9,28.5,45.1,28.7,45.1z
	 M28.7,46.6c0.1,0.3,0.3,0.4,0.6,0.4c0.1,0,0.1,0,0.2,0c0.3-0.1,0.5-0.4,0.4-0.7l0,0c-0.1-0.3-0.4-0.5-0.7-0.4
	C28.8,45.9,28.6,46.3,28.7,46.6z M45.7,44.3c-0.1,0.3,0.1,0.7,0.4,0.7c0.1,0,0.1,0,0.2,0c0.3,0,0.5-0.2,0.6-0.4l0,0
	c0.1-0.3-0.1-0.6-0.4-0.7C46.1,43.8,45.8,44,45.7,44.3z M50.3,62.6c-0.3,0-0.6,0.3-0.6,0.6s0.3,0.6,0.6,0.6s0.6-0.3,0.6-0.6v0
	C50.9,62.9,50.7,62.6,50.3,62.6z M49.1,48.9c0.1,0,0.1,0,0.2,0c0.3,0,0.5-0.2,0.6-0.4l0,0c0.1-0.3-0.1-0.6-0.4-0.7
	c-0.3-0.1-0.7,0.1-0.7,0.4C48.6,48.4,48.7,48.8,49.1,48.9z M48.5,53.4L48.5,53.4c-0.3,0-0.6,0.3-0.6,0.6s0.3,0.6,0.6,0.6
	s0.6-0.3,0.6-0.6S48.9,53.4,48.5,53.4z M48.4,50.8c0.1,0,0.1,0,0.2,0c0.3,0,0.5-0.2,0.6-0.4l0,0c0.1-0.3-0.1-0.6-0.4-0.7
	c-0.3-0.1-0.7,0.1-0.7,0.4S48.1,50.7,48.4,50.8z M46.3,53.4L46.3,53.4c-0.3,0-0.6,0.3-0.6,0.6s0.3,0.6,0.6,0.6s0.6-0.3,0.6-0.6
	S46.6,53.4,46.3,53.4z M47.8,52.7c0.1,0,0.1,0,0.2,0c0.3,0,0.5-0.2,0.6-0.4l0,0c0.1-0.3-0.1-0.6-0.4-0.7c-0.3-0.1-0.7,0.1-0.7,0.4
	C47.3,52.3,47.5,52.6,47.8,52.7z M50.3,45c0.1,0,0.1,0,0.2,0c0.3,0,0.5-0.2,0.6-0.4l0,0c0.1-0.3-0.1-0.6-0.4-0.7
	c-0.3-0.1-0.7,0.1-0.7,0.4S50,44.9,50.3,45z M50.3,53.8c-0.3,0-0.6,0.3-0.6,0.6S50,55,50.3,55s0.6-0.3,0.6-0.6v0
	C50.9,54,50.7,53.8,50.3,53.8z M50.3,60.4c-0.3,0-0.6,0.3-0.6,0.6s0.3,0.6,0.6,0.6s0.6-0.3,0.6-0.6v0C50.9,60.7,50.7,60.4,50.3,60.4
	z M45.7,48.5c0.1-0.3-0.1-0.6-0.4-0.7c-0.3-0.1-0.7,0.1-0.7,0.4c-0.1,0.3,0.1,0.7,0.4,0.7c0.1,0,0.1,0,0.2,0
	C45.4,48.9,45.6,48.8,45.7,48.5L45.7,48.5z M50.3,58.2c-0.3,0-0.6,0.3-0.6,0.6s0.3,0.6,0.6,0.6s0.6-0.3,0.6-0.6v0
	C50.9,58.5,50.7,58.2,50.3,58.2z M50.3,56c-0.3,0-0.6,0.3-0.6,0.6s0.3,0.6,0.6,0.6s0.6-0.3,0.6-0.6v0C50.9,56.2,50.7,56,50.3,56z
	 M43.8,52.8c0.1,0,0.1,0,0.2,0c0.3,0,0.5-0.2,0.6-0.4l0,0c0.1-0.3-0.1-0.6-0.4-0.7c-0.3-0.1-0.7,0.1-0.7,0.4
	C43.4,52.3,43.5,52.7,43.8,52.8z M31.5,52c-0.1-0.3-0.4-0.5-0.7-0.4c-0.3,0.1-0.5,0.4-0.4,0.8c0.1,0.3,0.3,0.4,0.6,0.4
	c0.1,0,0.1,0,0.2,0C31.4,52.7,31.6,52.3,31.5,52L31.5,52z M44.8,49.7c-0.3-0.1-0.7,0.1-0.8,0.4c-0.1,0.3,0.1,0.7,0.4,0.8
	c0.1,0,0.1,0,0.2,0c0.3,0,0.5-0.2,0.6-0.4l0,0C45.3,50.1,45.1,49.8,44.8,49.7z M30.8,53.4L30.8,53.4c-0.3,0-0.6,0.3-0.6,0.6
	s0.3,0.6,0.6,0.6s0.6-0.3,0.6-0.6S31.2,53.4,30.8,53.4z M30,48.9c0.3-0.1,0.5-0.4,0.4-0.7l0,0c-0.1-0.3-0.4-0.5-0.7-0.4
	c-0.3,0.1-0.5,0.4-0.4,0.8c0.1,0.3,0.3,0.4,0.6,0.4C29.9,48.9,29.9,48.9,30,48.9z M35.3,53.4L35.3,53.4c-0.3,0-0.6,0.3-0.6,0.6
	s0.3,0.6,0.6,0.6s0.6-0.3,0.6-0.6S35.6,53.4,35.3,53.4z M30.6,50.8c0.3-0.1,0.5-0.4,0.4-0.7l0,0c-0.1-0.3-0.4-0.5-0.7-0.4
	c-0.3,0.1-0.5,0.4-0.4,0.8c0.1,0.3,0.3,0.4,0.6,0.4C30.4,50.9,30.5,50.9,30.6,50.8z M33.1,53.4L33.1,53.4c-0.3,0-0.6,0.3-0.6,0.6
	s0.3,0.6,0.6,0.6s0.6-0.3,0.6-0.6S33.4,53.4,33.1,53.4z M28.6,53.4L28.6,53.4c-0.3,0-0.6,0.3-0.6,0.6s0.3,0.6,0.6,0.6
	s0.6-0.3,0.6-0.6S29,53.4,28.6,53.4z M37.5,53.4L37.5,53.4c-0.3,0-0.6,0.3-0.6,0.6s0.3,0.6,0.6,0.6s0.6-0.3,0.6-0.6
	S37.8,53.4,37.5,53.4z M44.1,53.4L44.1,53.4c-0.3,0-0.6,0.3-0.6,0.6s0.3,0.6,0.6,0.6s0.6-0.3,0.6-0.6S44.4,53.4,44.1,53.4z
	 M39.7,53.4L39.7,53.4c-0.3,0-0.6,0.3-0.6,0.6s0.3,0.6,0.6,0.6s0.6-0.3,0.6-0.6S40,53.4,39.7,53.4z M41.9,53.4L41.9,53.4
	c-0.3,0-0.6,0.3-0.6,0.6s0.3,0.6,0.6,0.6s0.6-0.3,0.6-0.6S42.2,53.4,41.9,53.4z"/>
</svg>
