<?xml version="1.0" encoding="utf-8"?>
<!-- Generator: Adobe Illustrator 25.4.1, SVG Export Plug-In . SVG Version: 6.00 Build 0)  -->
<svg version="1.1" id="Layer_1" xmlns="http://www.w3.org/2000/svg" xmlns:xlink="http://www.w3.org/1999/xlink" x="0px" y="0px"
	 viewBox="0 0 75 75" style="enable-background:new 0 0 75 75;" xml:space="preserve">
<g>
	
		<g id="_x32_46_x2C__Architect_x2C__Construction_x2C__Creative_x2C__Design_x2C__Idea_00000044169269853833357370000009160858001839300494_">
		<g>
			<path d="M23.8,31.1l3.1,0.7c0.2,0.7,0.5,1.4,0.8,2L26,36.5c-0.3,0.5-0.2,1.1,0.2,1.6l1.8,1.8c0.4,0.4,1.1,0.5,1.6,0.2l2.7-1.7
				c0.6,0.3,1.3,0.6,2,0.8l0.7,3.1c0.1,0.6,0.6,1,1.2,1h2.6c0.6,0,1.1-0.4,1.2-1l0.7-3.1c0.7-0.2,1.4-0.5,2-0.8l2.7,1.7
				c0.5,0.3,1.1,0.2,1.6-0.2l1.8-1.8c0.4-0.4,0.5-1.1,0.2-1.6l-1.7-2.7c0.3-0.6,0.6-1.3,0.8-2l3.1-0.7c0.6-0.1,1-0.6,1-1.2v-2.6
				c0-0.6-0.4-1.1-1-1.2l-3.1-0.7c-0.2-0.7-0.5-1.4-0.8-2l1.7-2.7c0.3-0.5,0.2-1.1-0.2-1.6L47,17.3c-0.4-0.4-1.1-0.5-1.6-0.2
				l-2.7,1.7c-0.6-0.3-1.3-0.6-2-0.8L40,14.9c-0.1-0.6-0.6-1-1.2-1h-2.6c-0.6,0-1.1,0.4-1.2,1L34.3,18c-0.7,0.2-1.4,0.5-2,0.8
				l-2.8-1.6c-0.5-0.3-1.1-0.2-1.6,0.2l-1.8,1.8c-0.4,0.4-0.5,1.1-0.2,1.6l1.7,2.7c-0.3,0.6-0.6,1.3-0.8,2l-3.1,0.7
				c-0.6,0.1-1,0.6-1,1.2V30C22.8,30.4,23.2,30.9,23.8,31.1z M25.3,28.3l2.8-0.6c0.5-0.1,0.8-0.5,0.9-0.9c0.2-1,0.6-1.9,1.1-2.7
				c0.3-0.4,0.3-0.9,0-1.3l-1.5-2.6l0.4-0.4l2.5,1.6c0.4,0.3,0.9,0.3,1.3,0c0.8-0.5,1.7-0.9,2.7-1.1c0.5-0.1,0.8-0.5,0.9-0.9
				l0.6-2.8h0.6l0.6,2.8c0.1,0.5,0.5,0.8,0.9,0.9c1,0.2,1.9,0.6,2.7,1.1c0.4,0.3,0.9,0.3,1.3,0l2.5-1.6l0.4,0.4l-1.6,2.5
				c-0.3,0.4-0.3,0.9,0,1.3c0.5,0.8,0.9,1.8,1.1,2.7c0.1,0.5,0.5,0.8,0.9,0.9l2.8,0.6v0.6l-2.8,0.6c-0.5,0.1-0.8,0.5-0.9,0.9
				c-0.2,1-0.6,1.9-1.1,2.7c-0.3,0.4-0.3,0.9,0,1.3l1.6,2.5l-0.4,0.4l-2.5-1.6c-0.4-0.3-0.9-0.3-1.3,0c-0.8,0.5-1.7,0.9-2.7,1.1
				c-0.5,0.1-0.8,0.5-0.9,0.9l-0.6,2.8H37l-0.6-2.8c-0.1-0.5-0.5-0.8-0.9-0.9c-1-0.2-1.9-0.6-2.7-1.1c-0.4-0.3-0.9-0.3-1.3,0
				L29,37.1l-0.4-0.4l1.6-2.5c0.3-0.4,0.3-0.9,0-1.3c-0.5-0.8-0.9-1.7-1.1-2.7c-0.1-0.5-0.5-0.8-0.9-0.9l-2.8-0.6L25.3,28.3
				L25.3,28.3z"/>
			<path d="M37.4,33.6c2.8,0,5.1-2.3,5.1-5.1s-2.3-5.1-5.1-5.1c-2.8,0-5.1,2.3-5.1,5.1C32.3,31.4,34.6,33.6,37.4,33.6z M37.4,26
				c1.4,0,2.6,1.2,2.6,2.6c0,1.4-1.1,2.6-2.6,2.6c-1.4,0-2.6-1.1-2.6-2.6C34.8,27.2,36,26,37.4,26z"/>
			<path d="M29,47.1v3.5c-1.5,0.2-2.7,1.5-2.7,3.1c0,1.1,0.6,2.1,1.5,2.7c-0.8,2,0.8,4.2,2.9,4.2h1.2c-0.4,1.9,1.1,3.8,3.1,3.8h4.8
				c2,0,3.5-1.8,3.1-3.8h1.2c2.2,0,3.7-2.2,2.9-4.2c0.9-0.5,1.5-1.5,1.5-2.7c0-1.6-1.2-2.9-2.7-3.1v-3.5c7.1-3.2,12-10.4,12-18.6
				c0-11.3-9.1-20.4-20.4-20.4c-11.2,0-20.3,9.1-20.4,20.3C16.9,36.6,21.8,43.9,29,47.1z M40.4,61.3c0,0.3-0.3,0.6-0.6,0.6H35
				c-0.3,0-0.6-0.3-0.6-0.6s0.3-0.6,0.6-0.6h4.8C40.2,60.6,40.4,60.9,40.4,61.3z M44.1,58.1c-4,0-9.4,0-13.4,0
				c-0.3,0-0.6-0.3-0.6-0.6c0-0.3,0.3-0.6,0.6-0.6h13.4c0.3,0,0.6,0.3,0.6,0.6C44.7,57.8,44.5,58.1,44.1,58.1z M46.1,53.7
				c0,0.3-0.3,0.6-0.6,0.6c-3,0-13,0-16,0c-0.3,0-0.6-0.3-0.6-0.6c0-0.3,0.3-0.6,0.6-0.6c6.7,0,9,0,16,0
				C45.8,53.1,46.1,53.4,46.1,53.7z M37.6,10.7c9.8,0.1,17.7,8.2,17.7,17.9c0,7.3-4.4,13.9-11.2,16.6c-0.5,0.2-0.8,0.6-0.8,1.2v4.3
				h-2.2v-3.8c0-0.7-0.6-1.3-1.3-1.3c-0.7,0-1.3,0.6-1.3,1.3v3.8H36v-3.8c0-0.7-0.6-1.3-1.3-1.3c-0.7,0-1.3,0.6-1.3,1.3v3.8h-2.2
				v-4.3c0-0.5-0.3-1-0.8-1.2c-6.9-2.8-11.3-9.4-11.2-16.8C19.5,18.6,27.7,10.6,37.6,10.7z"/>
			<path d="M58.8,65.6H16.4c-0.7,0-1.3,0.6-1.3,1.3c0,0.7,0.6,1.3,1.3,1.3h42.4c0.7,0,1.3-0.6,1.3-1.3C60,66.2,59.4,65.6,58.8,65.6z
				"/>
		</g>
	</g>
	<g id="Layer_1_00000100343077140783227830000018148979344183228819_">
	</g>
</g>
</svg>
