<?xml version="1.0" encoding="utf-8"?>
<!-- Generator: Adobe Illustrator 25.4.1, SVG Export Plug-In . SVG Version: 6.00 Build 0)  -->
<svg version="1.1" id="Layer_1" xmlns="http://www.w3.org/2000/svg" xmlns:xlink="http://www.w3.org/1999/xlink" x="0px" y="0px"
	 viewBox="0 0 75 75" style="enable-background:new 0 0 75 75;" xml:space="preserve">
<style type="text/css">
	.st0{fill:#1E81CE;}
</style>
<path class="st0" d="M43.5,32.4c0.1,0.3,0.5,0.4,0.8,0.3c0.2-0.1,0.3-0.3,0.3-0.5c0-0.1,0-0.2-0.1-0.3c-0.1-0.3-0.5-0.4-0.8-0.3
	C43.5,31.8,43.4,32.1,43.5,32.4z M45.2,36.6c0.3,0,0.5-0.3,0.5-0.6c0,0,0-0.1,0-0.1c0-0.3-0.3-0.6-0.7-0.5c-0.3,0-0.6,0.3-0.5,0.7
	S44.9,36.6,45.2,36.6z M44.2,34.2c0.1,0.3,0.4,0.5,0.7,0.4c0.3-0.1,0.4-0.3,0.4-0.6c0-0.1,0-0.1,0-0.2c-0.1-0.3-0.4-0.5-0.7-0.4
	C44.3,33.6,44.1,33.9,44.2,34.2z M42.6,30.8c0.2,0.3,0.6,0.3,0.8,0.1c0.2-0.1,0.3-0.3,0.3-0.5c0-0.1,0-0.2-0.1-0.3
	c-0.2-0.3-0.6-0.3-0.8-0.1C42.4,30.2,42.4,30.5,42.6,30.8z M44.9,40.6c0.3,0.1,0.7-0.1,0.7-0.5c0,0,0-0.1,0-0.1
	c0-0.3-0.2-0.5-0.5-0.6c-0.3-0.1-0.6,0.1-0.7,0.5C44.3,40.2,44.5,40.5,44.9,40.6z M44.6,38c0,0.3,0.2,0.6,0.6,0.6
	c0.3,0,0.6-0.2,0.6-0.6v0c0-0.3-0.2-0.6-0.6-0.6C44.9,37.4,44.6,37.7,44.6,38z M43.3,44.2c0.3,0.2,0.7,0.1,0.8-0.2
	c0-0.1,0.1-0.2,0.1-0.3c0-0.2-0.1-0.4-0.3-0.5c-0.3-0.2-0.7-0.1-0.8,0.2C42.9,43.7,43,44.1,43.3,44.2z M28.4,25.9
	c0.1,0.3,0.4,0.5,0.8,0.4h0c0.3-0.1,0.4-0.3,0.4-0.6c0-0.1,0-0.1,0-0.2c-0.1-0.3-0.5-0.5-0.8-0.4C28.4,25.3,28.2,25.6,28.4,25.9z
	 M41.4,29.3c0.2,0.2,0.6,0.2,0.8,0c0.1-0.1,0.2-0.3,0.2-0.4c0-0.1-0.1-0.3-0.2-0.4c-0.2-0.2-0.6-0.2-0.9,0
	C41.1,28.7,41.1,29.1,41.4,29.3z M44.2,42.5c0.3,0.1,0.7,0,0.8-0.4c0-0.1,0-0.1,0-0.2c0-0.2-0.2-0.5-0.4-0.6c-0.3-0.1-0.6,0-0.8,0.3
	S43.9,42.4,44.2,42.5z M24.9,27.9c0.2,0.3,0.6,0.3,0.8,0.1c0.2-0.1,0.2-0.3,0.2-0.5c0-0.1,0-0.2-0.1-0.4c-0.2-0.3-0.6-0.3-0.8-0.1
	C24.8,27.3,24.7,27.7,24.9,27.9z M40.8,27.9c0.1-0.1,0.1-0.2,0.1-0.4c0-0.2-0.1-0.4-0.2-0.5c0,0,0,0,0,0c-0.3-0.2-0.6-0.1-0.8,0.1
	c-0.2,0.3-0.1,0.6,0.1,0.8C40.2,28.3,40.6,28.2,40.8,27.9z M26.5,26.8c0.2,0.3,0.5,0.4,0.8,0.2c0.2-0.1,0.3-0.3,0.3-0.5
	c0-0.1,0-0.2-0.1-0.3c-0.2-0.3-0.5-0.4-0.8-0.2C26.5,26.1,26.4,26.5,26.5,26.8z M23.5,28.5c-0.2,0.2-0.2,0.6,0,0.9
	c0.2,0.2,0.6,0.2,0.8,0h0c0.1-0.1,0.2-0.3,0.2-0.4c0-0.2-0.1-0.3-0.2-0.4C24.1,28.2,23.7,28.2,23.5,28.5z M31,25.8
	c0.3-0.1,0.5-0.3,0.5-0.6v-0.1c-0.1-0.3-0.4-0.5-0.7-0.5c-0.3,0-0.5,0.4-0.5,0.7C30.3,25.7,30.6,25.9,31,25.8z M34.9,24.7
	c-0.3-0.1-0.6,0.2-0.7,0.5c-0.1,0.3,0.2,0.6,0.5,0.7c0.3,0.1,0.6-0.2,0.7-0.5c0,0,0-0.1,0-0.1C35.4,25,35.2,24.7,34.9,24.7z
	 M32.2,25.1c0,0.3,0.3,0.6,0.6,0.6s0.6-0.3,0.6-0.6c0-0.3-0.3-0.6-0.6-0.6S32.2,24.8,32.2,25.1z M39.1,26.8c0-0.1,0.1-0.2,0.1-0.3
	c0-0.2-0.1-0.4-0.3-0.5c-0.3-0.1-0.7,0-0.8,0.2c-0.1,0.3,0,0.7,0.3,0.8C38.6,27.2,39,27.1,39.1,26.8z M37,25.2
	c-0.3-0.1-0.7,0.1-0.8,0.4c-0.1,0.3,0.1,0.6,0.4,0.8c0.3,0.1,0.7-0.1,0.8-0.4c0-0.1,0-0.1,0-0.2C37.4,25.5,37.2,25.2,37,25.2z
	 M42.9,45.7c0.1-0.1,0.1-0.2,0.1-0.4c0-0.2-0.1-0.3-0.2-0.5c-0.2-0.2-0.6-0.2-0.8,0.1c-0.2,0.3-0.2,0.6,0.1,0.9
	C42.3,46,42.7,46,42.9,45.7z M36.4,49.6c0-0.1,0-0.1,0-0.1c-0.1-0.3-0.4-0.5-0.7-0.4c-0.3,0.1-0.5,0.4-0.4,0.7
	c0.1,0.3,0.4,0.5,0.7,0.4C36.2,50.1,36.4,49.8,36.4,49.6z M34.4,49.9L34.4,49.9c0-0.4-0.3-0.6-0.6-0.6c-0.3,0-0.6,0.3-0.5,0.6
	c0,0.3,0.3,0.6,0.6,0.5C34.2,50.4,34.4,50.2,34.4,49.9z M31.8,50.5c0.3,0,0.6-0.2,0.7-0.5v-0.1c0-0.3-0.2-0.6-0.5-0.6
	c-0.3,0-0.6,0.2-0.7,0.6C31.2,50.2,31.4,50.4,31.8,50.5z M28.5,49.2c0-0.1,0-0.2,0-0.2c0-0.2-0.1-0.5-0.4-0.6
	c-0.3-0.1-0.7,0-0.8,0.3c-0.1,0.3,0,0.7,0.3,0.8C28,49.6,28.4,49.5,28.5,49.2z M29.7,50.1c0.3,0.1,0.6-0.1,0.7-0.4c0,0,0-0.1,0-0.1
	c0-0.3-0.2-0.5-0.5-0.6c-0.3-0.1-0.7,0.1-0.7,0.4C29.2,49.7,29.4,50.1,29.7,50.1z M38.3,48.9c0-0.1,0-0.2,0-0.2
	c-0.1-0.3-0.5-0.4-0.8-0.3c-0.3,0.1-0.5,0.5-0.3,0.8c0.1,0.3,0.5,0.5,0.8,0.3C38.2,49.4,38.3,49.2,38.3,48.9z M24.1,46.4
	c-0.2,0.2-0.2,0.6,0,0.8c0.2,0.2,0.6,0.2,0.9-0.1c0.1-0.1,0.1-0.2,0.1-0.4c0-0.2-0.1-0.3-0.2-0.5C24.7,46.1,24.4,46.1,24.1,46.4z
	 M41.4,47.2c0.1-0.1,0.2-0.3,0.2-0.5c0-0.1,0-0.3-0.1-0.4c-0.2-0.2-0.6-0.3-0.9,0c-0.2,0.2-0.3,0.6,0,0.8S41.2,47.5,41.4,47.2
	C41.4,47.2,41.4,47.2,41.4,47.2z M25.7,47.7c-0.2,0.3-0.1,0.6,0.2,0.8c0.3,0.2,0.7,0.1,0.8-0.2c0.1-0.1,0.1-0.2,0.1-0.3
	c0-0.2-0.1-0.4-0.3-0.5C26.2,47.3,25.9,47.4,25.7,47.7z M40.1,48c0-0.1,0-0.2-0.1-0.3c-0.2-0.3-0.5-0.4-0.8-0.2
	c-0.3,0.2-0.4,0.6-0.2,0.8c0.2,0.3,0.6,0.4,0.8,0.2C40,48.4,40.1,48.2,40.1,48z M21,38c0-0.3-0.3-0.6-0.6-0.6
	c-0.3,0-0.6,0.3-0.6,0.6c0,0.3,0.3,0.6,0.6,0.6C20.8,38.6,21,38.3,21,38C21,38,21,38,21,38z M21.8,41.9c0-0.1,0-0.1,0-0.2
	c-0.1-0.3-0.5-0.5-0.8-0.3c-0.3,0.1-0.5,0.5-0.3,0.8c0.1,0.3,0.5,0.5,0.8,0.4C21.7,42.4,21.8,42.1,21.8,41.9z M21.3,40
	c0,0,0-0.1,0-0.1c-0.1-0.3-0.4-0.5-0.7-0.5c-0.3,0.1-0.5,0.4-0.5,0.7c0.1,0.3,0.4,0.5,0.7,0.5C21.1,40.5,21.3,40.3,21.3,40z
	 M22.7,43.7c0-0.1,0-0.2-0.1-0.3c-0.2-0.3-0.5-0.4-0.8-0.2c-0.3,0.2-0.4,0.5-0.2,0.8c0.2,0.3,0.5,0.4,0.8,0.2
	C22.6,44.1,22.7,43.9,22.7,43.7z M23.8,45.3c0-0.1,0-0.3-0.1-0.4c-0.2-0.3-0.6-0.3-0.8-0.1c-0.3,0.2-0.3,0.6-0.1,0.8
	c0.2,0.3,0.6,0.3,0.8,0.1C23.7,45.7,23.8,45.5,23.8,45.3z M23,29.9c-0.3-0.2-0.7-0.1-0.8,0.2c-0.2,0.3-0.1,0.6,0.2,0.8
	c0.3,0.2,0.6,0.1,0.8-0.1c0.1-0.1,0.1-0.2,0.1-0.3C23.2,30.3,23.1,30.1,23,29.9z M21.1,36c0-0.3-0.2-0.6-0.5-0.6
	c-0.3,0-0.6,0.2-0.7,0.5c0,0.3,0.2,0.6,0.5,0.7S21.1,36.4,21.1,36L21.1,36z M22.2,32.2c0-0.2-0.1-0.4-0.3-0.5
	c-0.3-0.1-0.7,0-0.8,0.3c-0.1,0.3,0,0.6,0.3,0.8c0.3,0.1,0.6,0,0.8-0.3C22.2,32.3,22.2,32.3,22.2,32.2z M21.5,34
	c0-0.3-0.2-0.5-0.4-0.6c-0.3-0.1-0.7,0.1-0.8,0.4c-0.1,0.3,0.1,0.6,0.4,0.7c0.3,0.1,0.6-0.1,0.7-0.4C21.5,34.1,21.5,34.1,21.5,34z
	 M37,58.1c0.1-0.1,0.1-0.3,0.1-0.5c-0.3-1.9,0.7-3.6,2.5-4.4c0.5-0.2,1-0.3,1.6-0.3c0.4,0,0.7-0.3,0.7-0.6v0c0-0.4-0.3-0.6-0.6-0.6
	c-0.7,0-1.4,0.1-2.1,0.4c-2.1,0.9-3.4,2.9-3.3,5.1c-1.8,0.2-3.6,0.2-5.3-0.1c0.2-2.2-1.1-4.2-3.2-5.2c-1.4-0.6-2.8-0.6-4.1,0
	c-0.7,0.3-1.4,0.7-1.9,1.2c-1.5-1.2-2.8-2.4-3.8-3.8c1.7-1.5,2.2-3.8,1.4-6c-0.8-2.1-2.9-3.4-5.1-3.3c-0.2-1.8-0.2-3.6,0.1-5.4
	c0.8,0,1.5-0.1,2.2-0.4c1.4-0.6,2.4-1.5,2.9-2.9c0.8-2.1,0.3-4.4-1.3-5.9c1.2-1.5,2.4-2.8,3.8-3.8c1.5,1.7,3.8,2.2,6,1.4
	c2.1-0.8,3.4-2.9,3.3-5.1c1.9-0.2,3.7-0.2,5.3,0c-0.2,2.2,1.1,4.3,3.2,5.2c0.6,0.2,1.2,0.4,1.9,0.4c0.4,0,0.7-0.3,0.7-0.6
	c0,0,0,0,0,0c0-0.3-0.3-0.6-0.6-0.6c-0.5,0-1-0.1-1.4-0.3c-1.8-0.8-2.7-2.5-2.4-4.4c0-0.2,0-0.3-0.1-0.5c-0.1-0.1-0.2-0.2-0.4-0.3
	c-2.1-0.4-4.4-0.4-7-0.1c-0.2,0-0.3,0.1-0.4,0.3c-0.1,0.1-0.1,0.3-0.1,0.5c0.3,1.8-0.7,3.7-2.5,4.4C25,22.5,23.1,22,22,20.4
	c-0.2-0.3-0.6-0.4-0.9-0.2c-1.8,1.2-3.4,2.8-5,4.9c-0.2,0.3-0.2,0.7,0.1,0.9c1.5,1.1,2,3.1,1.4,4.8c-0.4,1.1-1.2,1.8-2.2,2.2
	c-0.6,0.2-1.3,0.3-2.2,0.3c-0.3,0-0.6,0.2-0.7,0.5c-0.4,2.3-0.4,4.6-0.1,7c0,0.2,0.1,0.3,0.3,0.4c0.1,0.1,0.3,0.1,0.5,0.1
	c1.8-0.3,3.7,0.7,4.4,2.5c0.7,1.8,0.1,3.7-1.4,4.8c-0.3,0.2-0.4,0.6-0.2,0.9c1.2,1.8,2.8,3.4,4.9,5c0.1,0.1,0.3,0.1,0.5,0.1
	c0.2,0,0.3-0.1,0.4-0.3c0.4-0.6,1-1,1.7-1.3c1.1-0.4,2.1-0.4,3.1,0c1.8,0.8,2.7,2.5,2.4,4.4c0,0.2,0,0.3,0.1,0.5
	c0.1,0.1,0.3,0.2,0.4,0.3c2.3,0.4,4.6,0.4,7,0.1C36.7,58.3,36.9,58.2,37,58.1z M24.9,37.5c0,4.4,3.5,7.9,7.9,7.9s7.9-3.5,7.9-7.9
	s-3.5-7.9-7.9-7.9S24.9,33.1,24.9,37.5z M39.4,37.5c0,3.6-3,6.6-6.6,6.6s-6.6-3-6.6-6.6s3-6.6,6.6-6.6S39.4,33.9,39.4,37.5z
	 M57.7,13.6L57.7,13.6L57.7,13.6C57.7,13.6,57.7,13.6,57.7,13.6C57.7,13.6,57.7,13.6,57.7,13.6l0,6.8c0,0.1-0.1,0.2-0.2,0.3
	l-4.2,2.4c-0.1,0.1-0.2,0.1-0.4,0l-4.2-2.4c-0.1-0.1-0.2-0.2-0.2-0.3v-6.8c0,0,0,0,0,0c0-0.3-0.3-0.6-0.6-0.6c-0.1,0-0.2,0-0.3,0.1
	c0,0,0,0,0,0c-2.6,1.8-4.2,4.7-4.2,7.9c0,3.6,1.9,6.8,5.1,8.5v16c-3.2,1.7-5.1,4.9-5.1,8.5c0,3.2,1.6,6.2,4.2,7.9c0,0,0,0,0,0
	C47.8,62,47.9,62,48,62c0.3,0,0.6-0.3,0.6-0.6c0,0,0,0,0,0v-6.8c0-0.1,0.1-0.2,0.2-0.3l4.2-2.4c0.1-0.1,0.2-0.1,0.4,0l4.2,2.4
	c0.1,0.1,0.2,0.2,0.2,0.3v6.8c0,0,0,0,0,0s0,0,0,0v0h0c0,0.3,0.3,0.6,0.6,0.6c0.1,0,0.2,0,0.3-0.1c0,0,0,0,0,0
	c2.6-1.8,4.2-4.7,4.2-7.9c0-3.6-1.9-6.8-5.1-8.5v-16c3.2-1.7,5.1-4.9,5.1-8.5c0-3.2-1.6-6.2-4.2-7.9c0,0,0,0,0,0
	C58.5,13,58.4,13,58.3,13C57.9,13,57.7,13.2,57.7,13.6z M61.7,21.1c0,3.3-1.8,6.2-4.8,7.6c-0.3,0.1-0.4,0.3-0.4,0.5v16.7
	c0,0.2,0.1,0.4,0.4,0.5c3,1.4,4.8,4.3,4.8,7.6c0,2.5-1.1,4.8-2.9,6.4v-5.7c0-0.5-0.3-1-0.7-1.2l-4.2-2.4c-0.4-0.3-1-0.3-1.4,0
	l-4.2,2.4c-0.4,0.3-0.7,0.7-0.7,1.2v5.7c-1.7-1.6-2.7-3.8-2.7-6.2c0-3.3,1.7-6.2,4.7-7.6c0.3-0.1,0.4-0.4,0.4-0.5V29.1
	c0-0.2-0.1-0.5-0.4-0.5c-3-1.4-4.7-4.3-4.7-7.6c0-2.4,1-4.7,2.7-6.2v5.7c0,0.5,0.3,1,0.7,1.2l4.2,2.4c0.4,0.3,1,0.3,1.4,0l4.2-2.4
	c0.4-0.3,0.7-0.7,0.7-1.2v-5.7C60.6,16.3,61.7,18.6,61.7,21.1z"/>
</svg>
