<?xml version="1.0" encoding="utf-8"?>
<!-- Generator: Adobe Illustrator 25.4.1, SVG Export Plug-In . SVG Version: 6.00 Build 0)  -->
<svg version="1.1" id="Layer_1" xmlns="http://www.w3.org/2000/svg" xmlns:xlink="http://www.w3.org/1999/xlink" x="0px" y="0px"
	 viewBox="0 0 75 75" style="enable-background:new 0 0 75 75;" xml:space="preserve">
<g>
	
		<g id="_x32_44_x2C__Architecture_x2C__Builder_x2C__Character_x2C__Concept_x2C__Design_00000100374547651900377330000005104507523822943929_">
		<g>
			<path d="M36.9,41.1c7,0,12.3-7,12.3-13.7c0-0.7-0.6-1.3-1.3-1.3H25.7c-0.7,0-1.3,0.6-1.3,1.3C24.4,34.1,29.9,41.1,36.9,41.1z
				 M27,28.6h19.6C46,33.5,42,38.6,36.9,38.6C31.8,38.6,27.6,33.5,27,28.6z"/>
			<path d="M35.6,36.1h2.5c0.7,0,1.3-0.6,1.3-1.3c0-0.7-0.6-1.3-1.3-1.3h-2.5c-0.7,0-1.3,0.6-1.3,1.3C34.4,35.6,34.9,36.1,35.6,36.1
				z"/>
			<path d="M21.3,24.9h31.1c0.7,0,1.3-0.6,1.3-1.3c0-0.7-0.6-1.3-1.3-1.3h-2.6c-0.4-4.3-3-8.2-6.8-10.3c-0.8-0.4-1.8,0.2-1.8,1.1
				v4.3c0,0.3-0.3,0.6-0.6,0.6c-0.3,0-0.6-0.3-0.6-0.6V12c0-0.6-0.4-1.1-1.1-1.2c-1.4-0.2-2.8-0.2-4.1,0c-0.6,0.1-1.1,0.6-1.1,1.2
				v5.5c0,0.3-0.3,0.6-0.6,0.6c-0.3,0-0.7-0.3-0.7-0.6v-4.2c0-0.9-1-1.5-1.8-1.1c-3.9,2.1-6.4,6-6.8,10.3h-2.6
				c-0.7,0-1.3,0.6-1.3,1.3C20,24.3,20.6,24.9,21.3,24.9z M30,15.5v1.9c0,1.7,1.4,3.1,3.1,3.1c1.7,0,3.1-1.4,3.1-3.1V13
				c0.4,0,0.8,0,1.3,0v4.4c0,1.7,1.4,3.1,3.1,3.1s3.1-1.4,3.1-3.1v-1.9c2,1.7,3.4,4.2,3.7,6.9h-21C26.6,19.7,28,17.3,30,15.5z"/>
			<path d="M46.8,42.3l-1.4-1.9c-0.4-0.5-1.2-0.7-1.7-0.2l-6.8,5l-6.9-5c-0.5-0.4-1.3-0.3-1.7,0.3l-1.5,1.8h-4.7
				c-2.6,0-4.7,2.1-4.7,4.7v15.2c0,0.7,0.6,1.3,1.3,1.3H55c0.7,0,1.3-0.6,1.3-1.3V47c0-2.6-2.1-4.7-4.7-4.7H46.8z M44.1,42.9
				l0.5,0.6L41,48.2l-2-1.5L44.1,42.9z M29.6,42.9l5.3,3.8l-2.1,1.5l-3.7-4.7L29.6,42.9z M53.7,47v14h-3.8v-7.5
				c0-0.7-0.6-1.3-1.3-1.3s-1.2,0.6-1.2,1.3V61H26.3v-7.5c0-0.7-0.6-1.3-1.3-1.3c-0.7,0-1.3,0.6-1.3,1.3V61h-3.8V47
				c0-1.2,1-2.2,2.2-2.2h4.7l4.6,5.9c0.4,0.5,1.2,0.6,1.7,0.2l3.7-2.7l3.6,2.7c0.5,0.4,1.3,0.3,1.7-0.2l4.6-5.9h4.7
				C52.7,44.8,53.7,45.8,53.7,47z"/>
			<path d="M58.7,64.7H15.1c-0.7,0-1.3,0.6-1.3,1.3c0,0.7,0.6,1.3,1.3,1.3h43.6c0.7,0,1.3-0.6,1.3-1.3
				C59.9,65.3,59.3,64.7,58.7,64.7z"/>
			<path d="M61.8,39.9"/>
		</g>
	</g>
	<g id="Layer_1_00000127723806293117117760000012902436546006001041_">
	</g>
</g>
</svg>
