<?xml version="1.0" encoding="utf-8"?>
<!-- Generator: Adobe Illustrator 25.4.1, SVG Export Plug-In . SVG Version: 6.00 Build 0)  -->
<svg version="1.1" id="Layer_1" xmlns="http://www.w3.org/2000/svg" xmlns:xlink="http://www.w3.org/1999/xlink" x="0px" y="0px"
	 viewBox="0 0 75 75" style="enable-background:new 0 0 75 75;" xml:space="preserve">
<style type="text/css">
	.st0{fill:#1E81CE;}
</style>
<path class="st0" d="M40.2,50.4c-1.4-0.3-2.4-1.6-2.4-3.1c0-1.5,1-2.7,2.4-3.1c0.3-0.1,0.6-0.4,0.5-0.8c-0.4-1.7-1.1-3.5-2.2-5.3
	c-0.1-0.1-0.2-0.3-0.4-0.3c-0.2,0-0.3,0-0.5,0.1c-1.1,0.7-2.8,0.5-3.9-0.5c-1.1-1.1-1.2-2.6-0.4-3.9c0.1-0.1,0.1-0.3,0.1-0.5
	s-0.1-0.3-0.3-0.4c-1.5-1-3.2-1.7-5.2-2.2c-0.2,0-0.3,0-0.5,0.1c-0.1,0.1-0.3,0.2-0.3,0.4c-0.3,1.4-1.6,2.4-3.1,2.4
	c-1.5,0-2.7-1-3.1-2.4c-0.1-0.3-0.4-0.6-0.8-0.5c-1.7,0.4-3.5,1.1-5.3,2.2c-0.3,0.2-0.4,0.6-0.2,0.9c0.7,1.2,0.6,2.8-0.4,3.9
	c-0.6,0.6-1.4,0.9-2.3,0.9c-0.5,0-1.1-0.2-1.7-0.5c-0.3-0.1-0.7,0-0.8,0.2c-1,1.6-1.7,3.3-2.2,5.2c0,0.2,0,0.3,0.1,0.5
	c0.1,0.1,0.2,0.3,0.4,0.3c1.4,0.3,2.4,1.6,2.4,3.1c0,1.5-1,2.7-2.4,3.1c-0.3,0.1-0.6,0.4-0.5,0.8c0.4,1.7,1.1,3.5,2.2,5.3
	c0.1,0.1,0.2,0.3,0.4,0.3c0.2,0,0.3,0,0.5-0.1c0.5-0.3,1-0.4,1.6-0.4c0.9,0,1.6,0.3,2.3,0.9c1.1,1.1,1.2,2.6,0.4,3.9
	c-0.1,0.1-0.1,0.3-0.1,0.5c0,0.2,0.1,0.3,0.3,0.4c1.6,1,3.3,1.7,5.2,2.2c0.2,0,0.4,0,0.5-0.1c0.1-0.1,0.3-0.2,0.3-0.4
	c0.3-1.4,1.6-2.4,3.1-2.4s2.7,1,3.1,2.4c0.1,0.3,0.3,0.5,0.6,0.5c0,0,0.1,0,0.1,0c1.7-0.4,3.5-1.1,5.3-2.2c0.3-0.2,0.4-0.6,0.2-0.9
	c-0.7-1.2-0.6-2.8,0.4-3.9c0.6-0.6,1.4-0.9,2.3-0.9c0.5,0,1.1,0.2,1.7,0.5c0.3,0.2,0.7,0,0.8-0.2c1-1.6,1.7-3.3,2.2-5.2
	c0-0.2,0-0.3-0.1-0.5C40.5,50.5,40.4,50.4,40.2,50.4z M37.7,55.2c-0.6-0.2-1.2-0.3-1.7-0.3c-1.2,0-2.3,0.4-3.2,1.3
	c-1.3,1.3-1.6,3.2-0.9,4.9c-1.3,0.7-2.5,1.3-3.7,1.6c-0.6-1.7-2.3-2.8-4.1-2.8c-1.9,0-3.5,1.1-4.1,2.8c-1.3-0.4-2.6-0.9-3.7-1.6
	c0.8-1.6,0.4-3.5-0.9-4.9c-0.9-0.9-1.9-1.3-3.2-1.3c-0.6,0-1.2,0.1-1.7,0.3c-0.7-1.3-1.3-2.5-1.6-3.7c1.7-0.6,2.8-2.3,2.8-4.1
	c0-1.8-1.1-3.5-2.8-4.1c0.4-1.4,0.9-2.6,1.6-3.8c0.6,0.2,1.2,0.3,1.7,0.3c1.2,0,2.3-0.4,3.2-1.3c1.3-1.3,1.6-3.2,0.9-4.9
	c1.3-0.7,2.5-1.3,3.7-1.6c0.6,1.7,2.3,2.8,4.1,2.8c1.8,0,3.5-1.1,4.1-2.8c1.4,0.4,2.7,0.9,3.7,1.5c-0.8,1.6-0.4,3.5,0.9,4.9
	c0.9,0.9,2,1.3,3.2,1.3c0.6,0,1.2-0.1,1.7-0.3c0.7,1.3,1.3,2.5,1.6,3.7c-1.7,0.6-2.8,2.3-2.8,4.1c0,1.8,1.1,3.5,2.8,4.1
	C38.9,52.8,38.4,54.1,37.7,55.2z M46.9,34.3c0-0.4-0.3-0.7-0.6-0.7H37c-0.4,0-0.6,0.3-0.6,0.7S36.6,35,37,35h9.3
	C46.6,35,46.9,34.7,46.9,34.3z M60.6,20.7c-0.4,0-0.9,0-1.3,0.1c0-0.3,0.1-0.6,0.1-1c0-5-4-9-9-9c-3.5,0-6.7,2.1-8.1,5.2
	c-0.9-0.5-1.9-0.8-2.9-0.8c-2.4,0-4.5,1.5-5.3,3.7c-0.5-0.1-1-0.1-1.5-0.1c-4.4,0-8,3.6-8,8c0,0.5,0.1,1.1,0.2,1.6
	c0.1,0.4,0.4,0.6,0.8,0.5c0.4-0.1,0.6-0.4,0.5-0.8c-0.1-0.4-0.1-0.9-0.1-1.3c0-3.7,3-6.7,6.7-6.7c0.6,0,1.2,0.1,1.8,0.2
	c0.2,0,0.4,0,0.5-0.1c0.2-0.1,0.3-0.2,0.3-0.4c0.5-2,2.2-3.3,4.2-3.3c1,0,2,0.4,2.8,1c0.2,0.1,0.4,0.2,0.6,0.1
	c0.2-0.1,0.4-0.2,0.4-0.4c1.1-3.1,4-5.1,7.2-5.1c4.2,0,7.7,3.4,7.7,7.7c0,0.6-0.1,1.1-0.2,1.7c-0.1,0.2,0,0.5,0.2,0.6
	c0.2,0.2,0.4,0.2,0.6,0.1c0.6-0.2,1.2-0.3,1.9-0.3c3.2,0,5.8,2.6,5.8,5.8s-2.6,5.8-5.8,5.8h-8.5c-0.4,0-0.6,0.3-0.6,0.7
	s0.3,0.7,0.6,0.7h8.5c3.9,0,7.1-3.2,7.1-7.1S64.5,20.7,60.6,20.7z M47.2,45.3c-0.3,0-0.6,0.3-0.6,0.6s0.3,0.6,0.6,0.6h0
	c0.3,0,0.6-0.3,0.6-0.6S47.5,45.3,47.2,45.3z M49.2,41.3c-0.3,0-0.6,0.3-0.6,0.6s0.3,0.6,0.6,0.6s0.6-0.3,0.6-0.6v0
	C49.8,41.6,49.5,41.3,49.2,41.3z M49.8,39.9c0-0.3-0.3-0.6-0.6-0.6s-0.6,0.3-0.6,0.6s0.3,0.6,0.6,0.6S49.8,40.3,49.8,39.9L49.8,39.9
	z M45.2,45.3c-0.3,0-0.6,0.3-0.6,0.6s0.3,0.6,0.6,0.6h0c0.3,0,0.6-0.3,0.6-0.6S45.5,45.3,45.2,45.3z M49.8,37.9
	c0-0.3-0.3-0.6-0.6-0.6s-0.6,0.3-0.6,0.6s0.3,0.6,0.6,0.6S49.8,38.2,49.8,37.9L49.8,37.9z M40.7,45.5c-0.1,0.1-0.2,0.3-0.2,0.4
	c0,0.1,0,0.2,0,0.2c0,0.1,0.1,0.1,0.1,0.2c0.1,0.1,0.3,0.2,0.4,0.2c0.2,0,0.3-0.1,0.4-0.2c0.1-0.1,0.2-0.3,0.2-0.4s-0.1-0.3-0.2-0.4
	C41.4,45.3,41,45.3,40.7,45.5z M43.2,45.3c-0.3,0-0.6,0.3-0.6,0.6s0.3,0.6,0.6,0.6h0c0.3,0,0.6-0.3,0.6-0.6S43.5,45.3,43.2,45.3z
	 M49.6,25.4c-0.2-0.2-0.6-0.2-0.9,0c-0.1,0.1-0.2,0.3-0.2,0.4c0,0.2,0.1,0.3,0.2,0.4c0.1,0.1,0.3,0.2,0.4,0.2c0.1,0,0.1,0,0.2,0
	c0.1,0,0.1-0.1,0.2-0.1c0.1-0.1,0.2-0.3,0.2-0.4c0-0.1,0-0.2,0-0.2C49.7,25.6,49.6,25.5,49.6,25.4z M49.8,29.9
	c0-0.3-0.3-0.6-0.6-0.6s-0.6,0.3-0.6,0.6s0.3,0.6,0.6,0.6S49.8,30.2,49.8,29.9L49.8,29.9z M49.8,35.9c0-0.3-0.3-0.6-0.6-0.6
	s-0.6,0.3-0.6,0.6s0.3,0.6,0.6,0.6S49.8,36.2,49.8,35.9L49.8,35.9z M49.2,44.5c0.3,0,0.6-0.3,0.6-0.6v0c0-0.3-0.3-0.6-0.6-0.6
	s-0.6,0.3-0.6,0.6S48.8,44.5,49.2,44.5z M49.6,45.5c-0.1-0.1-0.1-0.1-0.2-0.1c-0.2-0.1-0.5,0-0.7,0.1c-0.1,0.1-0.2,0.3-0.2,0.4
	s0.1,0.3,0.2,0.4c0.1,0.1,0.3,0.2,0.4,0.2c0.1,0,0.1,0,0.2,0c0.1,0,0.1-0.1,0.2-0.1c0.1-0.1,0.2-0.3,0.2-0.4c0-0.1,0-0.2,0-0.2
	C49.7,45.6,49.6,45.6,49.6,45.5z M49.8,27.9c0-0.3-0.3-0.6-0.6-0.6s-0.6,0.3-0.6,0.6s0.3,0.6,0.6,0.6S49.8,28.2,49.8,27.9L49.8,27.9
	z M49.8,31.9c0-0.3-0.3-0.6-0.6-0.6s-0.6,0.3-0.6,0.6s0.3,0.6,0.6,0.6S49.8,32.2,49.8,31.9L49.8,31.9z M49.8,33.9
	c0-0.3-0.3-0.6-0.6-0.6s-0.6,0.3-0.6,0.6s0.3,0.6,0.6,0.6S49.8,34.2,49.8,33.9L49.8,33.9z M16.6,49.1c-0.1-0.3-0.4-0.5-0.7-0.4
	c-0.3,0.1-0.5,0.4-0.4,0.7c0.1,0.3,0.3,0.5,0.6,0.5c0,0,0.1,0,0.1,0C16.4,49.8,16.6,49.4,16.6,49.1z M15.9,45.9c0.1,0,0.1,0,0.1,0
	c0.3,0,0.5-0.2,0.6-0.5c0.1-0.3-0.1-0.6-0.4-0.7c-0.3-0.1-0.7,0.1-0.7,0.4C15.3,45.5,15.5,45.8,15.9,45.9z M16.4,47.3
	c0-0.3-0.3-0.6-0.6-0.6c-0.3,0-0.6,0.3-0.6,0.6s0.3,0.6,0.6,0.6C16.1,47.9,16.4,47.6,16.4,47.3z M17.2,50.9
	c-0.1-0.3-0.5-0.4-0.8-0.3c-0.3,0.2-0.4,0.5-0.3,0.8c0.1,0.2,0.3,0.3,0.5,0.3c0.1,0,0.2,0,0.3-0.1C17.2,51.5,17.4,51.1,17.2,50.9z
	 M17.4,52.3c-0.2,0.2-0.3,0.6-0.1,0.9c0.1,0.1,0.3,0.2,0.4,0.2c0.1,0,0.3,0,0.4-0.1c0.2-0.2,0.3-0.6,0.1-0.8
	C18,52.1,17.7,52.1,17.4,52.3z M17.4,41.4c-0.2,0.2-0.2,0.6,0,0.9c0.1,0.1,0.3,0.2,0.4,0.2c0.2,0,0.3-0.1,0.5-0.2
	c0.2-0.2,0.2-0.6-0.1-0.9C18,41.1,17.7,41.2,17.4,41.4z M31.5,45.6c0.1,0.3,0.3,0.5,0.6,0.5c0.1,0,0.1,0,0.1,0
	c0.3-0.1,0.5-0.4,0.5-0.7c-0.1-0.3-0.4-0.5-0.7-0.4C31.6,45,31.4,45.3,31.5,45.6z M18.8,53.8c-0.2,0.3-0.1,0.6,0.2,0.8
	c0.1,0.1,0.2,0.1,0.3,0.1c0.2,0,0.4-0.1,0.5-0.2c0.2-0.3,0.1-0.6-0.1-0.8C19.4,53.4,19,53.5,18.8,53.8z M19.4,41.1
	c0.1,0,0.2,0,0.3-0.1c0.3-0.2,0.3-0.6,0.2-0.8c-0.2-0.3-0.6-0.3-0.8-0.2c-0.3,0.2-0.3,0.6-0.2,0.8C19,41,19.2,41.1,19.4,41.1z
	 M21.3,54.5c-0.3-0.1-0.7,0-0.8,0.3c-0.1,0.3,0,0.7,0.3,0.8c0.1,0,0.1,0,0.2,0c0.2,0,0.5-0.2,0.6-0.4C21.7,54.9,21.6,54.6,21.3,54.5
	z M29.8,42.3c0.1,0.1,0.3,0.2,0.5,0.2c0.1,0,0.3,0,0.4-0.1c0.2-0.2,0.3-0.6,0.1-0.8c-0.2-0.3-0.6-0.3-0.8-0.1
	C29.6,41.7,29.6,42.1,29.8,42.3L29.8,42.3z M23.1,39.7C23.1,39.7,23.1,39.7,23.1,39.7c0.4,0,0.6-0.3,0.6-0.7c0-0.3-0.3-0.6-0.7-0.5
	c0,0,0,0,0,0c-0.3,0-0.6,0.3-0.5,0.7C22.5,39.5,22.8,39.7,23.1,39.7z M16.4,44c0.1,0,0.2,0.1,0.3,0.1c0.2,0,0.4-0.1,0.5-0.3
	c0.2-0.3,0.1-0.7-0.2-0.8c-0.3-0.2-0.7,0-0.8,0.2c0,0,0,0,0,0C16,43.4,16.2,43.8,16.4,44z M25,39.8C25,39.8,25.1,39.8,25,39.8
	c0.4,0,0.6-0.2,0.7-0.5c0-0.3-0.2-0.6-0.5-0.7c0,0,0,0,0,0c-0.3,0-0.6,0.2-0.7,0.5S24.7,39.7,25,39.8z M30.8,43.9
	c0.1,0.2,0.3,0.3,0.5,0.3c0.1,0,0.2,0,0.3-0.1c0.3-0.2,0.4-0.5,0.3-0.8c-0.2-0.3-0.5-0.4-0.8-0.3C30.8,43.2,30.7,43.6,30.8,43.9z
	 M26.8,40.2c0.1,0,0.1,0,0.2,0c0.2,0,0.5-0.2,0.6-0.4c0.1-0.3,0-0.7-0.3-0.8s-0.7,0-0.8,0.3C26.3,39.7,26.5,40.1,26.8,40.2z
	 M21.2,40.2c0.1,0,0.1,0,0.2,0c0.3-0.1,0.5-0.5,0.4-0.8c-0.1-0.3-0.5-0.5-0.8-0.4c-0.3,0.1-0.5,0.5-0.4,0.8
	C20.7,40,20.9,40.2,21.2,40.2z M28.3,53.6c-0.3,0.2-0.4,0.6-0.2,0.8c0.1,0.2,0.3,0.3,0.5,0.3c0.1,0,0.2,0,0.3-0.1
	c0.3-0.2,0.3-0.6,0.2-0.8C29,53.5,28.6,53.4,28.3,53.6z M29.7,52.4c-0.2,0.2-0.2,0.6,0,0.8c0.1,0.1,0.3,0.2,0.4,0.2
	c0.2,0,0.3-0.1,0.4-0.2c0.2-0.2,0.2-0.6,0-0.9C30.3,52.1,29.9,52.2,29.7,52.4z M32.3,46.7c-0.3,0-0.6,0.3-0.6,0.6
	c0,0.3,0.3,0.6,0.6,0.6s0.6-0.3,0.6-0.6C32.9,47,32.6,46.7,32.3,46.7z M28.3,40.3c-0.2,0.3-0.1,0.6,0.1,0.8c0.1,0.1,0.2,0.1,0.3,0.1
	c0.2,0,0.4-0.1,0.5-0.3c0.2-0.3,0.1-0.6-0.1-0.8C28.9,39.9,28.5,40,28.3,40.3z M31.6,50.6c-0.3-0.2-0.7,0-0.8,0.2
	c-0.2,0.3,0,0.7,0.2,0.8c0.1,0,0.2,0.1,0.3,0.1c0.2,0,0.4-0.1,0.5-0.3C32,51.2,31.9,50.8,31.6,50.6z M24.9,54.9
	c-0.3,0-0.6,0.3-0.5,0.7c0,0.3,0.3,0.5,0.6,0.5c0,0,0,0,0.1,0c0.3,0,0.6-0.3,0.5-0.7C25.5,55.1,25.2,54.9,24.9,54.9z M23.1,54.9
	c-0.3,0-0.6,0.2-0.7,0.5s0.2,0.6,0.5,0.7c0,0,0,0,0.1,0c0.3,0,0.6-0.2,0.6-0.5C23.6,55.3,23.4,55,23.1,54.9z M32.2,48.7
	c-0.3-0.1-0.6,0.1-0.7,0.4c-0.1,0.3,0.1,0.6,0.4,0.7c0.1,0,0.1,0,0.1,0c0.3,0,0.5-0.2,0.6-0.4C32.7,49.1,32.5,48.8,32.2,48.7z
	 M26.7,54.5c-0.3,0.1-0.5,0.5-0.4,0.8c0.1,0.2,0.3,0.4,0.6,0.4c0.1,0,0.1,0,0.2,0c0.3-0.1,0.5-0.5,0.4-0.8
	C27.4,54.5,27,54.4,26.7,54.5z M28.2,47.3c0-2.3-1.9-4.2-4.2-4.2s-4.2,1.9-4.2,4.2s1.9,4.2,4.2,4.2S28.2,49.6,28.2,47.3z M24,50.3
	c-1.7,0-3-1.3-3-3s1.3-3,3-3s3,1.3,3,3S25.7,50.3,24,50.3z M47.5,25.2c0.2-0.2,0.2-0.6,0-0.8c-0.2-0.2-0.6-0.2-0.8,0l0,0
	c-0.2,0.2-0.2,0.6,0,0.8c0.1,0.1,0.3,0.2,0.4,0.2C47.2,25.4,47.3,25.3,47.5,25.2z M50.3,23c-0.2-0.2-0.6-0.2-0.8,0
	c-0.2,0.2-0.2,0.6,0,0.9c0.1,0.1,0.3,0.2,0.4,0.2c0.2,0,0.3-0.1,0.4-0.2C50.5,23.6,50.5,23.2,50.3,23L50.3,23z M48.9,23
	c-0.2-0.2-0.6-0.3-0.8,0l0,0c-0.2,0.2-0.3,0.6,0,0.8c0.1,0.1,0.3,0.2,0.4,0.2c0.1,0,0.3-0.1,0.4-0.2C49.1,23.6,49.1,23.2,48.9,23z
	 M51.7,24.4L51.7,24.4c-0.2-0.2-0.6-0.2-0.9,0c-0.2,0.2-0.2,0.6,0,0.9c0.1,0.1,0.3,0.2,0.4,0.2s0.3-0.1,0.4-0.2
	C52,25,52,24.6,51.7,24.4z M53.2,26.6c0.2-0.2,0.2-0.6,0-0.8l0,0c-0.2-0.2-0.6-0.2-0.8,0c-0.2,0.2-0.2,0.6,0,0.9
	c0.1,0.1,0.3,0.2,0.4,0.2C52.9,26.8,53,26.8,53.2,26.6z M46.1,26.6c0.2-0.2,0.2-0.6-0.1-0.8c-0.2-0.2-0.6-0.2-0.8,0.1l0,0
	c-0.2,0.2-0.2,0.6,0.1,0.8c0.1,0.1,0.3,0.1,0.4,0.1C45.8,26.8,45.9,26.8,46.1,26.6z M54.6,28.1c0.2-0.2,0.2-0.6,0-0.8l0,0
	c-0.2-0.2-0.6-0.2-0.8,0c-0.2,0.2-0.2,0.6,0,0.9c0.1,0.1,0.3,0.2,0.4,0.2C54.3,28.3,54.5,28.2,54.6,28.1z M44.6,28.1
	c0.2-0.2,0.2-0.6,0-0.8c-0.2-0.2-0.6-0.2-0.8,0l0,0c-0.2,0.2-0.2,0.6,0,0.8c0.1,0.1,0.3,0.2,0.4,0.2C44.3,28.2,44.5,28.2,44.6,28.1z
	"/>
</svg>
